<svg width="358" height="181" viewBox="0 0 358 181" fill="none" xmlns="http://www.w3.org/2000/svg">
<g clip-path="url(#clip0_120_12040)">
<path d="M117.897 181C107.094 181 96.308 180.805 85.5379 180.415C70.1488 179.857 54.2357 179.281 39.445 171.008C29.0983 165.221 19.9347 155.936 12.9451 144.156C8.2734 136.172 4.84789 127.51 2.78891 118.475C-1.05189 102.025 -0.921063 84.8853 3.17037 68.4971C4.60417 62.8782 6.58076 57.4147 9.07177 52.1849C19.858 29.6575 39.5313 14.5355 63.0474 10.6966C63.2416 10.6711 63.438 10.6669 63.6331 10.684C63.7388 10.6897 63.8443 10.6958 63.9517 10.6912L64.0901 10.6469C64.4448 10.5226 64.8091 10.4283 65.1793 10.365C101.447 4.91948 139.788 15.9376 176.053 42.2274C204.094 62.5573 241.255 73.5047 289.661 75.695L290.348 75.7313C303.823 76.512 316.858 82.115 328.044 91.9354C339.085 101.628 347.375 114.56 352.018 129.334C352.588 131.135 353.112 133.01 353.573 134.906C354.002 136.668 353.972 138.512 353.485 140.259C352.998 142.006 352.071 143.596 350.794 144.875V144.879L350.673 145.004C350.383 145.295 350.078 145.574 349.766 145.834L349.399 146.139C346.305 148.709 343.862 150.739 340.938 152.316C338.987 153.36 336.913 154.15 334.765 154.666C322.969 157.567 310.99 160.256 299.161 162.66C276.188 167.331 252.609 171.185 229.08 174.114C192.194 178.701 155.063 181.001 117.897 181ZM63.3581 11.4818C63.2858 11.4811 63.2136 11.4861 63.1421 11.4966C39.8459 15.2996 20.3588 30.2732 9.67954 52.5776C7.21311 57.7555 5.25609 63.1649 3.83655 68.7281C-0.217609 84.9711 -0.346804 101.958 3.45983 118.262C5.49865 127.211 8.89095 135.79 13.5176 143.698C20.4388 155.362 29.5087 164.554 39.7469 170.28C54.4048 178.479 70.2429 179.053 85.5597 179.607C133.465 181.334 181.431 179.228 229.006 173.311C252.52 170.384 276.083 166.533 299.041 161.864C310.862 159.462 322.833 156.775 334.621 153.876C336.717 153.373 338.742 152.603 340.645 151.583C343.509 150.039 345.929 148.029 348.991 145.484C348.992 145.483 348.993 145.483 348.994 145.482L349.361 145.177C349.629 144.953 349.893 144.715 350.145 144.466L350.217 144.39C352.735 141.83 353.714 138.453 352.904 135.126C352.447 133.249 351.93 131.394 351.365 129.612C341.881 99.4319 317.347 78.1038 290.315 76.538L289.632 76.5017C267.52 75.501 248.171 72.7291 230.481 68.0266C209.364 62.4134 190.928 53.9635 175.685 42.9123C139.558 16.7233 101.378 5.74612 65.2679 11.1658C64.9306 11.2245 64.5987 11.3112 64.2756 11.4252L64.0262 11.4956C63.8846 11.502 63.7426 11.5003 63.6012 11.4905C63.5984 11.4903 63.5957 11.4902 63.5929 11.4901C63.5125 11.4859 63.4344 11.4818 63.3581 11.4818Z" fill="#F8B2BB"/>
<path d="M63.3581 11.4818C63.2858 11.4811 63.2136 11.4861 63.1421 11.4966C39.8459 15.2996 20.3588 30.2732 9.67954 52.5776C7.21311 57.7555 5.25609 63.1649 3.83655 68.7281C-0.217609 84.9711 -0.346804 101.958 3.45983 118.262C5.49865 127.211 8.89095 135.79 13.5176 143.698C20.4388 155.362 29.5087 164.554 39.7469 170.28C54.4048 178.479 70.2429 179.053 85.5597 179.607C133.465 181.334 181.431 179.228 229.006 173.311C252.52 170.384 276.083 166.533 299.041 161.864C310.862 159.462 322.833 156.775 334.621 153.876C336.717 153.373 338.742 152.603 340.645 151.583C343.509 150.039 345.929 148.029 348.991 145.484L348.994 145.482L349.361 145.177C349.629 144.953 349.893 144.715 350.145 144.466L350.217 144.39C352.735 141.83 353.714 138.453 352.904 135.126C352.447 133.249 351.93 131.394 351.365 129.612C341.881 99.4319 317.347 78.1038 290.315 76.538L289.632 76.5017C267.52 75.501 248.171 72.7291 230.481 68.0266C209.364 62.4134 190.928 53.9635 175.685 42.9123C139.558 16.7233 101.378 5.74612 65.2679 11.1658C64.9306 11.2245 64.5987 11.3112 64.2756 11.4252L64.0262 11.4956C63.8846 11.502 63.7426 11.5003 63.6012 11.4905L63.5929 11.4901C63.5125 11.4859 63.4344 11.4818 63.3581 11.4818Z" fill="#F8B2BB"/>
<path d="M111.825 58.972C110.824 58.0043 109.802 52.608 108.525 52.0602C109.479 54.1875 108.786 54.7507 108.781 57.0853C108.793 58.411 108.64 59.7329 108.324 61.0199H86.6965V43.9965C86.6965 42.4669 86.9952 40.9523 87.5755 39.5391C88.1559 38.1259 89.0066 36.8419 90.079 35.7603C91.1514 34.6787 92.4245 33.8207 93.8257 33.2354C95.2269 32.6501 96.7286 32.3488 98.2452 32.3489C98.8241 32.3603 99.3992 32.4452 99.957 32.6016C101.816 33.1078 103.51 34.0981 104.87 35.4733C106.23 36.8484 107.207 38.5599 107.704 40.4362C109.353 46.5143 111.975 56.6317 111.825 58.972Z" fill="#2F2E41"/>
<path d="M87.9655 79.914L87.9762 66.6453L80.2427 67.3423L82.972 75.7108L81.6946 96.7455C81.0751 96.8857 80.5094 97.2047 80.0665 97.6635C79.6237 98.1224 79.3227 98.7013 79.2004 99.3297C79.0781 99.9581 79.1398 100.609 79.3778 101.202C79.6158 101.796 80.02 102.307 80.541 102.673C81.062 103.039 81.6773 103.244 82.312 103.264C82.9466 103.283 83.5731 103.116 84.1151 102.782C84.6572 102.449 85.0912 101.963 85.3645 101.385C85.6377 100.807 85.7383 100.162 85.6539 99.5268L87.9655 79.914Z" fill="#FFB6B6"/>
<path d="M103.185 174.733L106.309 174.732L107.796 162.578H103.184L103.185 174.733Z" fill="#FFB6B6"/>
<path d="M102.127 173.178L107.066 172.881V175.015L111.761 178.286C111.993 178.447 112.168 178.679 112.26 178.948C112.352 179.217 112.356 179.508 112.272 179.78C112.188 180.051 112.021 180.288 111.794 180.457C111.567 180.625 111.292 180.716 111.01 180.716H105.13L104.117 178.605L103.721 180.716H101.504L102.127 173.178Z" fill="#2F2E41"/>
<path d="M85.1195 174.733L88.2442 174.732L89.7302 162.578H85.1191L85.1195 174.733Z" fill="#FFB6B6"/>
<path d="M84.0615 173.178L89.0005 172.881V175.015L93.6961 178.286C93.928 178.447 94.1027 178.679 94.1946 178.948C94.2865 179.217 94.2908 179.508 94.207 179.78C94.1231 180.051 93.9554 180.288 93.7284 180.457C93.5013 180.625 93.2268 180.716 92.945 180.716H87.065L86.0514 178.605L85.6557 180.716H83.4387L84.0615 173.178Z" fill="#2F2E41"/>
<path d="M100.403 52.3162L93.9303 52.4442L89.3615 57.308L85.6987 57.8498C84.0418 58.0949 82.5186 58.9061 81.3835 60.1479C80.2484 61.3897 79.5704 62.9868 79.4626 64.6723L80.0972 68.1876H83.9044L86.107 81.2303C85.2505 83.4313 85.1923 85.1686 86.9503 85.851L92.4073 96.2186L108.525 88.9229C109.342 87.5056 109.604 86.0821 108.769 84.6978L109.921 64.7317H113.795C113.795 60.9974 112.543 57.8493 108.863 57.4338C107.402 57.2743 105.933 57.1896 104.464 57.18L100.403 52.3162Z" fill="#E6E6E6"/>
<path d="M108.525 88.923C108.525 88.923 92.7882 91.7389 86.9504 85.8511C86.9504 85.8511 86.3577 86.8659 85.4646 88.5488C85.2078 89.0328 84.7118 89.3607 84.4122 89.9469C84.14 90.4797 83.4397 91.1348 83.1431 91.7391C82.9045 92.2252 83.2873 92.8605 83.039 93.3857C80.0494 99.7101 76.5565 108.631 77.3053 114.522C77.7882 118.321 78.7856 127.161 79.8361 136.655C79.9181 137.397 79.2534 138.35 79.3359 139.097C79.4137 139.802 80.2387 140.302 80.3165 141.009C80.3681 141.478 79.792 141.956 79.8435 142.425C79.9 142.939 80.5842 143.443 80.6404 143.956C82.0794 157.065 83.397 169.304 83.397 169.304H90.7577L92.1465 141.351L91.0115 131.162L93.6766 110.554L97.3569 130.138L97.8304 141.159L101.72 169.816H108.525V142.074L109.033 140.633L108.525 138.785L109.033 136.793L108.525 134.624V88.923Z" fill="#2F2E41"/>
<path d="M102.389 48.5307C101.387 49.874 99.9604 50.8328 98.3454 51.2493C96.7303 51.6658 95.0227 51.5151 93.5039 50.8221C91.9851 50.129 90.7455 48.935 89.9894 47.4366C89.2333 45.9381 89.0058 44.2247 89.3442 42.5784C89.6826 40.9321 90.5668 39.4511 91.8513 38.3794C93.1357 37.3076 94.7438 36.709 96.4106 36.6821C98.0774 36.6552 99.7036 37.2016 101.021 38.2314C102.339 39.2611 103.27 40.7128 103.66 42.3473C103.682 42.436 103.699 42.5242 103.717 42.6157C103.923 43.6403 103.911 44.6973 103.682 45.7169C103.454 46.7365 103.013 47.6956 102.389 48.5307Z" fill="#FFB6B6"/>
<path d="M100.86 44.3088C100.704 43.521 100.31 42.8011 99.7327 42.248C99.7897 43.003 99.6858 43.7615 99.4281 44.4726C97.4985 44.6449 95.5603 44.2577 93.8416 43.3565C92.5471 42.4708 90.8998 42.5475 88.981 43.3565C88.9808 42.4152 89.1646 41.483 89.5217 40.6134C89.8788 39.7437 90.4023 38.9535 91.0623 38.2879C91.7222 37.6222 92.5057 37.0943 93.368 36.7341C94.2303 36.3739 95.1545 36.1886 96.0879 36.1887H97.357C99.2417 36.1891 101.049 36.9444 102.382 38.2885C103.715 39.6326 104.464 41.4556 104.464 43.3565C103.293 43.7802 102.086 44.0988 100.86 44.3088Z" fill="#2F2E41"/>
<path d="M65.5049 115.073C65.5049 126.309 56.4738 135.415 45.3378 135.415C34.2018 135.415 25.1707 126.309 25.1707 115.073C25.1707 103.836 34.2018 94.7307 45.3378 94.7307C56.4738 94.7307 65.5049 103.836 65.5049 115.073Z" fill="#C7C7C7" stroke="#111111" stroke-width="0.5"/>
<path d="M195.614 20.5919C195.614 31.8285 186.583 40.9339 175.447 40.9339C164.311 40.9339 155.28 31.8285 155.28 20.5919C155.28 9.35538 164.311 0.25 175.447 0.25C186.583 0.25 195.614 9.35538 195.614 20.5919Z" fill="#C7C7C7" stroke="#111111" stroke-width="0.5"/>
<path d="M357.75 118.303C357.75 129.539 348.719 138.645 337.583 138.645C326.447 138.645 317.416 129.539 317.416 118.303C317.416 107.066 326.447 97.9608 337.583 97.9608C348.719 97.9608 357.75 107.066 357.75 118.303Z" fill="#C7C7C7" stroke="#111111" stroke-width="0.5"/>
<path d="M212.278 22.8376V69.5313C212.278 70.5012 211.899 71.4319 211.222 72.1214C210.546 72.8108 209.627 73.2032 208.665 73.2133C208.652 73.2147 208.639 73.2153 208.625 73.215H203.237C198.926 73.215 194.791 71.4876 191.742 68.4129C188.693 65.3381 186.981 61.1679 186.981 56.8196V22.8376C186.981 21.8606 187.366 20.9237 188.05 20.2329C188.735 19.542 189.664 19.1539 190.633 19.1539H192.817C191.805 22.1299 205.533 23.3829 206.287 19.1539H208.625C209.594 19.1539 210.523 19.542 211.208 20.2329C211.893 20.9237 212.278 21.8607 212.278 22.8376Z" fill="#F72F2F"/>
<path d="M196.287 15.6623C196.287 15.5343 196.338 15.4116 196.427 15.3211C196.517 15.2306 196.639 15.1797 196.766 15.1796H200.021C200.147 15.1799 200.269 15.231 200.358 15.3215C200.448 15.4119 200.498 15.5345 200.498 15.6623C200.498 15.7901 200.448 15.9127 200.358 16.0032C200.269 16.0937 200.147 16.1447 200.021 16.1451H196.766C196.639 16.1449 196.517 16.094 196.427 16.0035C196.338 15.913 196.287 15.7903 196.287 15.6623Z" fill="#111111"/>
<path d="M201.84 16.1451C202.104 16.1451 202.318 15.9289 202.318 15.6623C202.318 15.3957 202.104 15.1796 201.84 15.1796C201.575 15.1796 201.361 15.3957 201.361 15.6623C201.361 15.9289 201.575 16.1451 201.84 16.1451Z" fill="#111111"/>
<path d="M97.7141 109.179H44.1543C43.3937 109.177 42.6648 108.871 42.1269 108.329C41.5891 107.786 41.286 107.051 41.2839 106.284V79.9633C41.2859 79.1962 41.5889 78.4611 42.1267 77.9186C42.6645 77.3761 43.3933 77.0704 44.1539 77.0684H97.7137C98.4743 77.0703 99.2032 77.3759 99.7411 77.9183C100.279 78.4607 100.582 79.1958 100.584 79.9629V106.284C100.582 107.051 100.279 107.786 99.7413 108.329C99.2036 108.871 98.4747 109.177 97.7141 109.179ZM44.1543 77.8759C43.6058 77.8775 43.0803 78.098 42.6925 78.4892C42.3046 78.8804 42.0861 79.4105 42.0846 79.9637V106.284C42.0862 106.837 42.3048 107.367 42.6927 107.758C43.0806 108.149 43.6062 108.37 44.1547 108.371H97.7133C98.2619 108.37 98.7875 108.149 99.1754 107.758C99.5633 107.367 99.7819 106.837 99.7834 106.283V79.9633C99.7818 79.4102 99.5632 78.8801 99.1753 78.489C98.7874 78.0978 98.2618 77.8774 97.7133 77.8759L44.1543 77.8759Z" fill="#111111"/>
<path d="M73.8047 105.289C63.2415 105.289 52.227 105.187 48.1174 105.121C47.5767 105.11 47.0618 104.886 46.6826 104.497C46.3034 104.108 46.09 103.585 46.0879 103.04V81.2519C46.0881 81.0566 46.165 80.8693 46.3018 80.7311C46.4385 80.5928 46.624 80.5147 46.8177 80.514H95.0485C95.2421 80.5143 95.4277 80.5918 95.5648 80.7297C95.7019 80.8676 95.7793 81.0547 95.78 81.25V96.0326C95.771 98.4456 94.8246 100.759 93.1438 102.476C91.4631 104.194 89.1819 105.178 86.7897 105.219C82.9595 105.269 78.4241 105.289 73.8047 105.289Z" fill="#F72F2F"/>
<path d="M92.1855 94.6745H48.6051C48.2402 94.6735 47.8845 94.5592 47.5862 94.3471C47.288 94.1351 47.0617 93.8355 46.9381 93.4892L42.0055 79.5326C41.9104 79.2634 41.8808 78.9751 41.9191 78.692C41.9574 78.4089 42.0625 78.1392 42.2256 77.9055C42.3886 77.6719 42.6049 77.4811 42.8563 77.3492C43.1076 77.2173 43.3866 77.1482 43.67 77.1476L98.1446 77.0712C98.4035 77.0709 98.6594 77.1279 98.8941 77.2382C99.1288 77.3485 99.3367 77.5093 99.5031 77.7094C99.6695 77.9095 99.7904 78.144 99.8572 78.3963C99.924 78.6487 99.9351 78.9127 99.8898 79.1698L99.9318 79.1878L99.7754 79.5559L99.7739 79.5596L93.8109 93.5925C93.675 93.9138 93.4485 94.1876 93.1595 94.38C92.8705 94.5724 92.5317 94.6748 92.1855 94.6745ZM98.1471 77.8787L43.6715 77.9552C43.5163 77.9555 43.3634 77.9933 43.2257 78.0655C43.0881 78.1377 42.9696 78.2422 42.8802 78.3702C42.7909 78.4982 42.7333 78.646 42.7123 78.801C42.6913 78.9561 42.7075 79.114 42.7596 79.2615L47.6921 93.2176C47.7599 93.4073 47.8839 93.5714 48.0474 93.6876C48.2108 93.8038 48.4058 93.8664 48.6057 93.867H92.1855C92.375 93.8671 92.5603 93.8111 92.7185 93.7057C92.8766 93.6004 93.0006 93.4506 93.0749 93.2747L99.0381 79.2414C99.1013 79.0927 99.1269 78.9305 99.1126 78.7694C99.0984 78.6082 99.0447 78.4532 98.9564 78.3181C98.8681 78.183 98.7479 78.0722 98.6066 77.9955C98.4654 77.9188 98.3075 77.8787 98.1471 77.8787Z" fill="#111111"/>
<path d="M70.8527 97.7125C72.7373 97.7125 74.2651 96.1716 74.2651 94.2708C74.2651 92.37 72.7373 90.8291 70.8527 90.8291C68.968 90.8291 67.4402 92.37 67.4402 94.2708C67.4402 96.1716 68.968 97.7125 70.8527 97.7125Z" fill="#F5F5F5"/>
<path d="M199.761 67.8339C201.646 67.8339 203.173 66.293 203.173 64.3922C203.173 62.4915 201.646 60.9506 199.761 60.9506C197.876 60.9506 196.348 62.4915 196.348 64.3922C196.348 66.293 197.876 67.8339 199.761 67.8339Z" fill="#F5F5F5"/>
<path d="M328.827 114.314L319.712 105.237C319.268 104.792 318.741 104.439 318.162 104.199C317.583 103.959 316.963 103.837 316.337 103.84H316.305C315.674 103.842 315.05 103.97 314.469 104.216C313.887 104.463 313.36 104.824 312.918 105.277C310.88 107.358 309.721 110.154 309.684 113.078C309.647 116.003 310.736 118.828 312.722 120.959C312.818 121.064 312.918 121.165 313.018 121.266C313.573 121.822 314.185 122.316 314.844 122.74C316.646 123.914 318.747 124.536 320.893 124.529H320.961C322.433 124.524 323.89 124.224 325.248 123.648C326.605 123.071 327.835 122.229 328.867 121.169C329.762 120.254 330.26 119.018 330.253 117.733C330.245 116.448 329.733 115.218 328.827 114.314ZM328.299 120.6C326.607 122.32 324.378 123.398 321.989 123.654C319.6 123.91 317.197 123.328 315.184 122.005C314.608 121.621 314.071 121.181 313.579 120.693C311.614 118.736 310.501 116.073 310.484 113.289C310.467 110.505 311.547 107.828 313.487 105.847C313.855 105.468 314.295 105.166 314.78 104.961C315.266 104.755 315.787 104.648 316.313 104.647H316.337C316.858 104.646 317.375 104.747 317.857 104.947C318.339 105.146 318.778 105.44 319.147 105.81L328.263 114.891C329.018 115.644 329.445 116.668 329.452 117.738C329.459 118.808 329.044 119.838 328.299 120.6Z" fill="#111111"/>
<path d="M298.919 84.5238L289.803 75.4432C288.906 74.5453 287.692 74.0429 286.428 74.0462H286.4C285.768 74.0487 285.144 74.1774 284.562 74.4248C283.98 74.6722 283.452 75.0334 283.009 75.4876C281.324 77.2135 280.232 79.4384 279.892 81.8362C279.552 84.234 279.982 86.6786 281.12 88.8118L281.124 88.8158C281.593 89.6883 282.176 90.4936 282.857 91.2101C282.933 91.299 283.021 91.3878 283.109 91.4766C285.203 93.5723 288.034 94.7455 290.984 94.739H291.056C292.529 94.7328 293.986 94.4324 295.343 93.8551C296.7 93.2778 297.93 92.4351 298.963 91.3757C299.406 90.9229 299.756 90.3865 299.994 89.7971C300.232 89.2076 300.352 88.5768 300.348 87.9405C300.344 87.3043 300.215 86.675 299.97 86.0888C299.725 85.5025 299.368 84.9708 298.919 84.5238ZM298.39 90.8104C297.432 91.7936 296.29 92.5756 295.031 93.1112C293.771 93.6469 292.419 93.9257 291.052 93.9315H290.984C288.931 93.9307 286.924 93.3177 285.216 92.1697C283.508 91.0217 282.174 89.3898 281.383 87.4794C280.592 85.569 280.379 83.4653 280.77 81.4328C281.161 79.4004 282.139 77.53 283.582 76.0569C284.328 75.2959 285.343 74.8646 286.405 74.8578C287.466 74.851 288.487 75.2692 289.242 76.0206L298.358 85.0972C299.112 85.8512 299.539 86.8761 299.545 87.9471C299.551 89.0181 299.136 90.0478 298.39 90.8104Z" fill="#111111"/>
<path d="M329.41 117.167L319.361 107.156C318.702 106.501 317.812 106.137 316.887 106.143C315.961 106.148 315.076 106.524 314.425 107.187C313.611 108.017 312.967 109 312.53 110.081C312.093 111.162 311.871 112.319 311.878 113.487C311.884 114.654 312.119 115.808 312.568 116.884C313.017 117.96 313.672 118.936 314.496 119.756C315.319 120.577 316.295 121.225 317.367 121.665C318.439 122.105 319.587 122.327 320.744 122.319C321.902 122.311 323.046 122.073 324.112 121.619C325.179 121.165 326.146 120.503 326.958 119.671L329.41 117.167Z" fill="#F72F2F"/>
<path d="M299.503 87.3759L289.453 77.3652C288.794 76.7102 287.904 76.3456 286.979 76.3514C286.054 76.3572 285.169 76.7329 284.518 77.396C283.704 78.2257 283.06 79.209 282.622 80.2899C282.185 81.3708 281.964 82.5279 281.97 83.6952C281.977 84.8626 282.211 86.0171 282.661 87.0929C283.11 88.1688 283.765 89.1447 284.588 89.965C285.412 90.7853 286.388 91.4338 287.46 91.8736C288.532 92.3133 289.68 92.5355 290.837 92.5277C291.994 92.5198 293.139 92.2819 294.205 91.8276C295.271 91.3733 296.238 90.7115 297.051 89.88L299.503 87.3759Z" fill="#F72F2F"/>
<path d="M318.367 123.402L318.127 124.04C316.998 123.608 315.903 123.175 314.844 122.74C296.076 115.016 287.117 105.976 281.123 88.8159L281.119 88.8118C280.835 88.0043 280.559 87.178 280.291 86.3328L280.923 86.1268C281.135 86.9397 281.444 87.7234 281.844 88.4606C282.172 89.4014 282.51 90.3179 282.857 91.2102C288.49 105.693 296.797 113.97 312.722 120.96C313.523 121.311 314.343 121.659 315.184 122.005C316.16 122.647 317.236 123.119 318.367 123.402Z" fill="#111111"/>
<path d="M289.636 94.004L289.073 94.5787L309.866 115.291L310.428 114.716L289.636 94.004Z" fill="#111111"/>
<path d="M113.601 76.8421L113.612 63.5734L105.878 64.2704L108.608 72.6389L98.7005 87.7858C98.0809 87.926 97.5153 88.245 97.0724 88.7038C96.6295 89.1627 96.3286 89.7416 96.2063 90.37C96.084 90.9984 96.1456 91.649 96.3837 92.2427C96.6217 92.8363 97.0259 93.3473 97.5469 93.7133C98.0679 94.0793 98.6832 94.2845 99.3178 94.3039C99.9525 94.3233 100.579 94.1561 101.121 93.8225C101.663 93.489 102.097 93.0036 102.37 92.4256C102.644 91.8475 102.744 91.2018 102.66 90.5671L113.601 76.8421Z" fill="#FFB6B6"/>
<path d="M209.744 79.1376H189.16C187.563 79.1358 186.032 78.4952 184.903 77.3563C183.773 76.2175 183.138 74.6733 183.136 73.0627V40.4219C183.023 40.34 182.931 40.2322 182.868 40.1073C182.804 39.9824 182.771 39.844 182.772 39.7037V36.4209C182.771 36.2806 182.804 36.1423 182.868 36.0174C182.931 35.8925 183.023 35.7847 183.136 35.7029V34.8218C183.023 34.74 182.931 34.6322 182.868 34.5073C182.804 34.3825 182.771 34.2441 182.772 34.1038V30.8209C182.771 30.6806 182.804 30.5422 182.868 30.4174C182.931 30.2925 183.023 30.1847 183.136 30.1029V28.5105C182.997 28.4349 182.88 28.3224 182.799 28.1852C182.718 28.048 182.675 27.8911 182.676 27.7313V24.4486C182.675 24.2888 182.718 24.1319 182.799 23.9946C182.88 23.8574 182.997 23.7449 183.136 23.6692V19.3059C183.138 17.6953 183.773 16.1511 184.903 15.0123C186.032 13.8734 187.563 13.2328 189.16 13.231H209.744C211.341 13.2328 212.872 13.8734 214.001 15.0123C215.13 16.1512 215.765 17.6953 215.767 19.3059V28.817C215.875 28.8855 215.965 28.9806 216.027 29.0935C216.089 29.2063 216.122 29.3333 216.122 29.4623V35.7218C216.122 35.8509 216.089 35.9778 216.027 36.0908C215.965 36.2037 215.875 36.2988 215.767 36.3673V73.0627C215.765 74.6733 215.13 76.2174 214.001 77.3563C212.872 78.4952 211.341 79.1358 209.744 79.1376ZM189.16 14.0385C187.775 14.04 186.448 14.5955 185.469 15.583C184.489 16.5705 183.939 17.9094 183.937 19.3059V24.3561L183.552 24.3711C183.532 24.3718 183.513 24.3803 183.499 24.3947C183.485 24.4091 183.477 24.4284 183.476 24.4486V27.7313C183.477 27.7515 183.485 27.7708 183.499 27.7852C183.513 27.7996 183.532 27.808 183.552 27.8088L183.937 27.8236V30.6698L183.632 30.7455C183.616 30.7496 183.601 30.7593 183.59 30.7729C183.579 30.7865 183.573 30.8034 183.572 30.8209V34.1038C183.573 34.1213 183.579 34.1382 183.59 34.1518C183.601 34.1654 183.616 34.175 183.632 34.1791L183.937 34.2548V36.2699L183.632 36.3456C183.616 36.3497 183.601 36.3593 183.59 36.3729C183.579 36.3866 183.573 36.4034 183.572 36.4209V39.7037C183.573 39.7212 183.579 39.7381 183.59 39.7517C183.6 39.7654 183.616 39.775 183.632 39.7792L183.937 39.8549V73.0627C183.939 74.4592 184.489 75.7981 185.469 76.7856C186.448 77.7731 187.775 78.3286 189.16 78.3301H209.744C211.128 78.3285 212.456 77.773 213.435 76.7855C214.414 75.798 214.965 74.4592 214.966 73.0627V35.6759H215.321V29.5085H214.966V19.3059C214.965 17.9094 214.414 16.5705 213.435 15.583C212.456 14.5955 211.128 14.0401 209.744 14.0385L189.16 14.0385Z" fill="#111111"/>
</g>
<defs>
<clipPath id="clip0_120_12040">
<rect width="358" height="181" fill="white"/>
</clipPath>
</defs>
</svg>
