<svg width="342" height="223" viewBox="0 0 342 223" fill="none" xmlns="http://www.w3.org/2000/svg">
<g clip-path="url(#clip0_120_5416)">
<path d="M122.675 128.126C134.396 107.931 156.753 92.4239 180.419 93.9178C162.962 112.513 152.783 136.558 151.681 161.797C151.293 171.532 151.896 182.4 145.296 189.69C141.191 194.226 134.914 196.422 128.744 196.883C122.573 197.344 116.403 196.252 110.314 195.164L108.837 195.609C108.275 172.385 110.955 148.322 122.675 128.126Z" fill="#E6E6E6"/>
<path d="M180.455 94.404C162.953 102.657 148.031 116.439 138.87 133.249C136.889 136.883 135.203 140.738 134.468 144.814C133.732 148.893 134.246 152.775 135.668 156.648C136.968 160.189 138.716 163.664 139.115 167.453C139.535 171.446 138.035 175.181 135.334 178.144C132.03 181.77 127.593 184.017 123.176 186.067C118.272 188.343 113.141 190.631 109.667 194.878C109.246 195.393 108.456 194.723 108.876 194.209C114.92 186.819 125.265 185.43 132.438 179.477C135.786 176.7 138.299 172.917 138.14 168.485C138.002 164.609 136.202 161.024 134.854 157.45C133.439 153.697 132.733 149.923 133.24 145.922C133.759 141.829 135.295 137.901 137.172 134.233C141.405 125.962 147.199 118.367 153.835 111.803C161.462 104.257 170.351 98.0449 180.116 93.4351C180.721 93.1501 181.055 94.1208 180.455 94.404Z" fill="#F5F5F5"/>
<path d="M141.553 127.631C138.87 125.709 136.972 122.916 136.197 119.75C135.423 116.584 135.822 113.251 137.325 110.347C137.631 109.761 138.576 110.199 138.269 110.786C136.865 113.488 136.493 116.592 137.221 119.539C137.948 122.486 139.727 125.081 142.236 126.856C142.781 127.242 142.095 128.015 141.553 127.631Z" fill="#F5F5F5"/>
<path d="M134.767 154.938C141.49 153.976 147.596 150.567 151.867 145.391C152.289 144.877 153.08 145.547 152.658 146.06C148.203 151.438 141.842 154.973 134.844 155.959C134.176 156.052 134.103 155.031 134.767 154.938V154.938Z" fill="#F5F5F5"/>
<path d="M161.978 105.517C162.858 106.472 163.967 107.199 165.204 107.631C166.441 108.063 167.769 108.187 169.068 107.993C169.733 107.891 169.805 108.913 169.144 109.014C167.708 109.222 166.242 109.083 164.874 108.609C163.506 108.134 162.277 107.339 161.295 106.292C161.194 106.201 161.133 106.076 161.123 105.941C161.112 105.807 161.155 105.674 161.241 105.57C161.332 105.468 161.461 105.405 161.599 105.395C161.737 105.385 161.873 105.429 161.978 105.517Z" fill="#F5F5F5"/>
<path d="M227.509 157.627C227.095 157.702 226.681 157.777 226.264 157.86C220.707 158.899 215.245 160.378 209.932 162.282C209.519 162.423 209.103 162.572 208.694 162.724C195.945 167.447 184.201 174.447 174.061 183.369C170.029 186.923 166.279 190.772 162.843 194.884C158.099 200.562 153.416 207.088 147.216 210.79C146.574 211.183 145.907 211.537 145.22 211.85L109.505 197.339C109.441 197.266 109.373 197.201 109.308 197.128L107.855 196.612C108.017 196.388 108.19 196.159 108.352 195.935C108.446 195.805 108.547 195.677 108.64 195.547C108.705 195.461 108.771 195.375 108.824 195.294C108.846 195.266 108.867 195.237 108.885 195.216C108.939 195.135 108.997 195.065 109.048 194.992C110.011 193.709 110.985 192.43 111.971 191.156C111.974 191.148 111.974 191.148 111.985 191.143C119.518 181.453 127.942 172.293 137.518 164.677C137.807 164.448 138.098 164.211 138.402 163.989C142.738 160.579 147.351 157.523 152.195 154.849C154.853 153.394 157.584 152.071 160.378 150.886C167.603 147.838 175.272 145.922 183.105 145.208C198.72 143.788 214.625 147.275 226.601 156.884C226.907 157.13 227.206 157.373 227.509 157.627Z" fill="#E6E6E6"/>
<path d="M227.241 158.038C208.195 154.306 187.808 156.511 170.162 164.529C166.347 166.263 162.631 168.347 159.538 171.168C156.444 173.99 154.468 177.393 153.223 181.324C152.084 184.918 151.344 188.723 149.334 191.984C147.214 195.42 143.721 197.517 139.744 198.291C134.877 199.238 129.953 198.415 125.166 197.447C119.852 196.371 114.349 195.172 108.965 196.515C108.312 196.677 108.093 195.676 108.744 195.514C118.112 193.178 127.225 198.17 136.612 197.647C140.992 197.404 145.324 195.865 147.921 192.233C150.193 189.057 150.959 185.133 152.08 181.484C153.257 177.653 155.012 174.224 157.877 171.328C160.807 168.366 164.448 166.136 168.201 164.314C176.665 160.206 185.958 157.559 195.292 156.232C206.02 154.705 216.935 154.987 227.566 157.065C228.224 157.194 227.894 158.167 227.241 158.038V158.038Z" fill="#F5F5F5"/>
<path d="M175.757 161.626C174.796 158.51 174.997 155.16 176.325 152.175C177.652 149.19 180.02 146.765 183.004 145.332C183.609 145.045 184.094 145.952 183.489 146.24C180.707 147.569 178.502 149.829 177.271 152.61C176.041 155.392 175.866 158.513 176.779 161.41C176.976 162.04 175.953 162.252 175.757 161.626Z" fill="#F5F5F5"/>
<path d="M153.555 179.427C159.514 182.624 166.484 183.503 173.076 181.889C173.729 181.728 173.949 182.729 173.296 182.889C166.434 184.556 159.182 183.627 152.988 180.288C152.398 179.969 152.968 179.11 153.555 179.427Z" fill="#F5F5F5"/>
<path d="M205.658 156.015C205.773 157.297 206.212 158.53 206.934 159.605C207.656 160.68 208.64 161.562 209.796 162.172C210.39 162.484 209.82 163.342 209.23 163.033C207.955 162.353 206.87 161.377 206.069 160.191C205.269 159.006 204.777 157.646 204.636 156.231C204.611 156.099 204.639 155.962 204.713 155.849C204.788 155.736 204.903 155.655 205.037 155.623C205.172 155.595 205.313 155.62 205.43 155.694C205.546 155.767 205.628 155.883 205.658 156.015Z" fill="#F5F5F5"/>
<path d="M159.474 181.567C154.472 157.878 148.22 149.98 148.22 149.98L145.831 148.165L142.959 145.98L142.973 145.699L142.291 145.472L142.131 145.35L141.869 145.153L141.827 145.197L141.738 145.288L128.74 140.96L112.25 135.473L104.614 125.751C103.37 124.168 101.769 122.888 99.9362 122.012C98.1031 121.136 96.0879 120.688 94.0485 120.703L69.6617 120.88C66.3643 120.904 63.1953 122.135 60.7777 124.332L44.7487 138.895L19.7723 150.58L19.7302 150.539L19.4679 150.722L15.6088 152.529L15.7681 153.341L13.3795 155.03C13.3795 155.03 7.12728 162.379 2.12544 184.422C0.853033 190.03 0.226706 202.062 0.000635305 216.888C-0.0107202 217.638 0.130253 218.383 0.415354 219.079C0.700456 219.775 1.124 220.409 1.66136 220.943C2.19872 221.478 2.83917 221.902 3.54547 222.192C4.25178 222.481 5.00985 222.631 5.77561 222.631H139.179V222.631H155.83C156.595 222.631 157.352 222.481 158.058 222.192C158.764 221.903 159.404 221.479 159.942 220.945C160.479 220.411 160.903 219.778 161.188 219.083C161.474 218.387 161.615 217.643 161.605 216.894C161.384 200.761 160.758 187.65 159.474 181.567Z" fill="#3F3D56"/>
<path d="M176.59 20.6593C171.4 20.6593 166.422 22.6789 162.752 26.2738C159.082 29.8687 157.021 34.7444 157.021 39.8284C157.021 44.9123 159.082 49.788 162.752 53.3829C166.422 56.9778 171.4 58.9974 176.59 58.9974H322.43C327.621 58.9974 332.598 56.9778 336.268 53.3829C339.938 49.788 342 44.9123 342 39.8284C342 34.7444 339.938 29.8687 336.268 26.2738C332.598 22.6789 327.621 20.6593 322.43 20.6593H176.59Z" fill="#E5E5E5"/>
<path d="M176.59 24.5388C172.45 24.5388 168.48 26.1497 165.553 29.017C162.625 31.8844 160.981 35.7734 160.981 39.8284C160.981 43.8835 162.625 47.7725 165.553 50.6398C168.48 53.5072 172.45 55.118 176.59 55.118H322.43C326.57 55.118 330.54 53.5072 333.468 50.6398C336.395 47.7725 338.039 43.8835 338.039 39.8284C338.039 35.7734 336.395 31.8844 333.468 29.017C330.54 26.1497 326.57 24.5388 322.43 24.5388H176.59Z" fill="#F5F5F5"/>
<path d="M85.6847 111.729C103.33 111.729 117.634 97.7179 117.634 80.4341C117.634 63.1502 103.33 49.1389 85.6847 49.1389C68.0397 49.1389 53.7356 63.1502 53.7356 80.4341C53.7356 97.7179 68.0397 111.729 85.6847 111.729Z" fill="#9E616A"/>
<path d="M77.5116 110.197C77.3751 109.902 77.239 109.607 77.1033 109.311C77.1556 109.312 77.2074 109.32 77.2597 109.321L77.5116 110.197Z" fill="#2F2E41"/>
<path d="M52.8472 50.562C54.4631 49.2993 56.3517 48.1375 58.4177 48.2028C60.4836 48.2681 62.5787 50.0958 62.1507 52.0767C65.9454 45.4952 71.9855 40.4334 79.2108 37.7796C86.436 35.1257 94.3847 35.0495 101.662 37.5644C106.796 39.3389 111.832 42.889 113.011 48.0958C113.314 49.4324 113.379 50.898 114.231 51.9834C115.305 53.3519 117.361 53.6614 119.053 53.18C119.07 53.1752 119.087 53.1703 119.104 53.1654C119.39 53.0698 119.698 53.0604 119.99 53.1384C120.281 53.2165 120.542 53.3784 120.738 53.6032C120.935 53.828 121.058 54.1054 121.092 54.3995C121.125 54.6935 121.068 54.9908 120.928 55.2527L119.475 57.9069C121.306 58.3068 123.209 58.2671 125.022 57.7913C125.323 57.714 125.641 57.7298 125.933 57.8365C126.224 57.9433 126.475 58.1358 126.65 58.3876C126.826 58.6395 126.917 58.9383 126.912 59.2432C126.908 59.548 126.807 59.844 126.623 60.0904C121.833 66.5331 113.829 70.6935 105.661 70.6446C99.8565 70.6099 93.9917 68.6502 88.3422 69.9578C86.1566 70.4636 84.1143 71.4424 82.3652 72.8222C80.6162 74.202 79.2047 75.9479 78.2343 77.9318C77.2639 79.9157 76.7593 82.0871 76.7574 84.287C76.7556 86.4868 77.2565 88.6591 78.2235 90.6445C76.488 88.785 73.1329 89.2253 71.3575 91.0485C69.5823 92.8717 69.1227 95.5929 69.3015 98.1063C69.5751 101.951 71.1127 105.573 72.7338 109.098C59.143 108.679 46.2883 99.3408 41.9615 86.7101C37.6164 74.0265 42.1702 58.9051 52.8472 50.562Z" fill="#2F2E41"/>
<path opacity="0.2" d="M31.4463 174.415L40.4073 222.172L45.7841 222.631L31.4463 174.415Z" fill="#111111"/>
<path opacity="0.2" d="M130.153 170.813L121.192 222.138L115.815 222.631L130.153 170.813Z" fill="#111111"/>
<path d="M60.4901 34.4892C58.772 35.192 56.9792 34.4218 56.2273 32.6581C55.4639 30.8673 56.1769 29.0495 57.9226 28.3355C59.6684 27.6214 61.4293 28.3935 62.205 30.2131C62.969 32.0054 62.2638 33.7637 60.4901 34.4892ZM57.1989 24.8108L55.8328 25.3696C55.4915 25.5075 55.1098 25.5149 54.7632 25.3904C54.4166 25.2659 54.1303 25.0185 53.961 24.6971L53.8934 24.5676C52.4235 21.9709 52.2552 18.815 53.3958 15.1924C54.4525 11.9428 54.8914 9.65739 54.0088 7.5869C52.9883 5.19303 50.8092 4.44315 48.0303 5.52944C46.9526 5.97026 46.6096 5.96324 45.7614 6.7874C45.5769 6.96885 45.357 7.11206 45.1148 7.20847C44.8726 7.30488 44.6131 7.35253 44.3516 7.34857C44.0989 7.34565 43.8494 7.29292 43.6179 7.19351C43.3865 7.0941 43.1778 6.95004 43.0044 6.76994C42.6704 6.42287 42.4832 5.96455 42.4807 5.48754C42.4783 5.01053 42.6607 4.55038 42.9912 4.20002C44.4168 2.73823 46.1363 1.58177 48.0411 0.803613C54.0116 -1.63846 57.0173 1.96691 58.3927 5.19338C59.738 8.34924 58.9812 11.2773 57.7653 15.0695C56.7463 18.2206 56.8057 20.5555 57.9632 22.8771C58.0467 23.0527 58.0932 23.2429 58.0998 23.4365C58.1065 23.63 58.0731 23.8229 58.0017 24.0035C57.9303 24.1841 57.8224 24.3487 57.6845 24.4874C57.5465 24.6262 57.3813 24.7361 57.1989 24.8108L57.1989 24.8108Z" fill="#FE0000"/>
<path d="M208.804 48.9709H179.788C179.695 48.9715 179.604 48.9543 179.519 48.9201C179.433 48.886 179.356 48.8357 179.29 48.7721C179.225 48.7084 179.173 48.6327 179.138 48.5494C179.102 48.466 179.084 48.3766 179.084 48.2863C179.084 48.196 179.102 48.1066 179.138 48.0232C179.173 47.9399 179.225 47.8642 179.29 47.8006C179.356 47.7369 179.433 47.6866 179.519 47.6525C179.604 47.6183 179.695 47.6011 179.788 47.6017H208.804C208.989 47.6029 209.166 47.6756 209.296 47.8038C209.426 47.9321 209.499 48.1055 209.499 48.2863C209.499 48.4671 209.426 48.6405 209.296 48.7688C209.166 48.897 208.989 48.9697 208.804 48.9709Z" fill="#F7941E"/>
<path d="M245.614 49.1992H216.597C216.505 49.1998 216.413 49.1826 216.328 49.1484C216.243 49.1143 216.165 49.064 216.1 49.0003C216.034 48.9367 215.982 48.861 215.947 48.7777C215.912 48.6943 215.893 48.6049 215.893 48.5146C215.893 48.4243 215.912 48.3349 215.947 48.2515C215.982 48.1681 216.034 48.0925 216.1 48.0288C216.165 47.9652 216.243 47.9149 216.328 47.8807C216.413 47.8466 216.505 47.8294 216.597 47.83H245.614C245.706 47.8294 245.797 47.8466 245.883 47.8807C245.968 47.9149 246.046 47.9652 246.111 48.0288C246.176 48.0925 246.228 48.1681 246.264 48.2515C246.299 48.3349 246.317 48.4243 246.317 48.5146C246.317 48.6049 246.299 48.6943 246.264 48.7777C246.228 48.861 246.176 48.9367 246.111 49.0003C246.046 49.064 245.968 49.1143 245.883 49.1484C245.797 49.1826 245.706 49.1998 245.614 49.1992Z" fill="#F7941E"/>
<path d="M282.424 49.4275H253.407C253.222 49.4262 253.046 49.3536 252.916 49.2253C252.786 49.097 252.713 48.9236 252.713 48.7428C252.713 48.5621 252.786 48.3886 252.916 48.2604C253.046 48.1321 253.222 48.0595 253.407 48.0582H282.424C282.516 48.0576 282.607 48.0749 282.693 48.109C282.778 48.1431 282.855 48.1935 282.921 48.2571C282.986 48.3207 283.038 48.3964 283.074 48.4798C283.109 48.5631 283.127 48.6525 283.127 48.7428C283.127 48.8331 283.109 48.9226 283.074 49.0059C283.038 49.0893 282.986 49.165 282.921 49.2286C282.855 49.2922 282.778 49.3426 282.693 49.3767C282.607 49.4108 282.516 49.4281 282.424 49.4275H282.424Z" fill="#F7941E"/>
<path d="M319.233 49.6554H290.216C290.032 49.6541 289.855 49.5814 289.725 49.4532C289.595 49.3249 289.522 49.1515 289.522 48.9707C289.522 48.79 289.595 48.6165 289.725 48.4883C289.855 48.36 290.032 48.2874 290.216 48.2861H319.233C319.417 48.2874 319.594 48.36 319.724 48.4883C319.854 48.6165 319.927 48.79 319.927 48.9707C319.927 49.1515 319.854 49.3249 319.724 49.4532C319.594 49.5814 319.417 49.6541 319.233 49.6554Z" fill="#F7941E"/>
<path d="M194.232 42.6701C197.211 42.6701 199.625 40.305 199.625 37.3875C199.625 34.47 197.211 32.1049 194.232 32.1049C191.254 32.1049 188.839 34.47 188.839 37.3875C188.839 40.305 191.254 42.6701 194.232 42.6701Z" fill="#F7941E"/>
<path d="M231.264 42.6701C234.242 42.6701 236.657 40.305 236.657 37.3875C236.657 34.47 234.242 32.1049 231.264 32.1049C228.285 32.1049 225.871 34.47 225.871 37.3875C225.871 40.305 228.285 42.6701 231.264 42.6701Z" fill="#F7941E"/>
<path d="M268.296 42.6701C271.274 42.6701 273.689 40.305 273.689 37.3875C273.689 34.47 271.274 32.1049 268.296 32.1049C265.317 32.1049 262.903 34.47 262.903 37.3875C262.903 40.305 265.317 42.6701 268.296 42.6701Z" fill="#F7941E"/>
<path d="M305.328 42.6701C308.306 42.6701 310.721 40.305 310.721 37.3875C310.721 34.47 308.306 32.1049 305.328 32.1049C302.349 32.1049 299.935 34.47 299.935 37.3875C299.935 40.305 302.349 42.6701 305.328 42.6701Z" fill="#F7941E"/>
</g>
<defs>
<clipPath id="clip0_120_5416">
<rect width="342" height="222.631" fill="white"/>
</clipPath>
</defs>
</svg>
