<svg width="26" height="28" viewBox="0 0 26 28" fill="none" xmlns="http://www.w3.org/2000/svg">
<path d="M17.0001 22V23C17.0001 24.0609 16.5786 25.0783 15.8285 25.8284C15.0783 26.5786 14.0609 27 13.0001 27C11.9392 27 10.9218 26.5786 10.1716 25.8284C9.42149 25.0783 9.00006 24.0609 9.00006 23V22M23.7301 19.9644C22.1251 18 20.9919 17 20.9919 11.5844C20.9919 6.625 18.4594 4.85812 16.3751 4C16.0982 3.88625 15.8376 3.625 15.7532 3.34062C15.3876 2.09625 14.3626 1 13.0001 1C11.6376 1 10.6119 2.09688 10.2501 3.34188C10.1657 3.62938 9.90507 3.88625 9.62819 4C7.54132 4.85938 5.01131 6.62 5.01131 11.5844C5.00819 17 3.87506 18 2.27006 19.9644C1.60506 20.7781 2.18756 22 3.35069 22H22.6557C23.8126 22 24.3913 20.7744 23.7301 19.9644Z" stroke="#F72F2F" stroke-width="2" stroke-linecap="round" stroke-linejoin="round"/>
</svg>
