<svg width="24" height="24" viewBox="0 0 24 24" fill="none" xmlns="http://www.w3.org/2000/svg">
<g clip-path="url(#clip0_2459_124)">
<mask id="path-1-inside-1_2459_124" fill="white">
<path d="M18.1526 6.98717C18.2821 6.98717 18.4096 6.92443 18.4933 6.80618L20.6647 3.72168C20.8053 3.52219 20.7667 3.23922 20.5789 3.08978C20.3906 2.94041 20.1247 2.9819 19.9845 3.18097L17.8131 6.26548C17.6725 6.46496 17.7111 6.74793 17.8989 6.89738C17.9749 6.95779 18.0641 6.98717 18.1526 6.98717Z"/>
<path d="M5.9026 6.92442C5.77723 6.92442 5.65272 6.86575 5.56906 6.7529L3.32255 3.73121C3.17718 3.53579 3.20819 3.25191 3.39262 3.09756C3.57571 2.94313 3.84379 2.97608 3.98908 3.172L6.23567 6.19377C6.38104 6.38919 6.35003 6.67307 6.1656 6.82741C6.0878 6.8928 5.99477 6.92442 5.9026 6.92442Z"/>
<path fill-rule="evenodd" clip-rule="evenodd" d="M17.3818 17.8406H18.9415C19.8788 17.8406 20.6409 18.5496 20.6414 19.4203V19.9845C20.6414 20.5541 20.0819 21 19.3668 21H4.17812C3.46355 21 2.90356 20.5541 2.90356 19.9845V19.4203C2.90356 18.5491 3.66571 17.8406 4.60298 17.8406H5.90308V16.5615H3.99971C3.81232 16.5615 3.6479 16.432 3.59353 16.2424C3.44355 15.7198 3.36365 15.1493 3.36365 14.5933C3.36365 11.1747 6.64311 8.14767 10.6249 7.64438L9.92086 5.7573C9.47015 5.50686 9.1638 5.05237 9.1638 4.52743C9.1638 3.73579 9.8529 3.09219 10.6996 3.09219H12.8601C13.7063 3.09219 14.3951 3.73621 14.3951 4.52743C14.3951 5.06358 14.0751 5.5262 13.6074 5.77265L12.9144 7.63036C17.0887 8.07987 20.2161 10.9729 20.2161 14.5932C20.2161 15.152 20.1358 15.6935 19.968 16.2482C19.9119 16.4351 19.7483 16.5615 19.5635 16.5615H17.3818V17.8406ZM10.6992 3.99478H12.8597C13.231 3.99478 13.545 4.23849 13.545 4.52735C13.545 4.81579 13.231 5.05951 12.8597 5.05951H10.6992C10.3275 5.05951 10.0131 4.81579 10.0131 4.52735C10.0131 4.23849 10.3271 3.99478 10.6992 3.99478ZM6.75231 16.5615H16.5321V17.8406H6.75231V16.5615ZM5.91365 14.1721C5.9638 13.9993 7.19289 9.92771 11.7308 9.37165C11.9628 9.34269 12.1748 9.52102 12.2015 9.76838C12.2283 10.0157 12.0609 10.24 11.8281 10.2684C7.83568 10.7577 6.73617 14.4009 6.72555 14.4375C6.66946 14.6316 6.50121 14.7562 6.31983 14.7562C6.27859 14.7562 6.23657 14.7498 6.19493 14.7363C5.97059 14.6627 5.84436 14.41 5.91365 14.1721Z"/>
<path d="M3.32758 9.66224C3.45717 9.66224 3.58465 9.5995 3.66831 9.48126C3.80891 9.28177 3.77024 8.9988 3.58246 8.84935L0.679419 6.54263C0.491169 6.39327 0.225275 6.43434 0.0845944 6.63383C-0.0560858 6.83332 -0.0173421 7.11628 0.17044 7.26573L3.07348 9.57254C3.14956 9.63295 3.23924 9.66224 3.32758 9.66224Z"/>
<path d="M23.3116 6.52953C23.4964 6.3751 23.7628 6.40895 23.9085 6.60396C24.0538 6.79988 24.0228 7.08334 23.8385 7.23819L20.994 9.62532C20.9162 9.69071 20.8232 9.72232 20.731 9.72232C20.6052 9.72232 20.4812 9.66365 20.3971 9.5508C20.2517 9.35488 20.2827 9.071 20.4671 8.91665L23.3116 6.52953Z"/>
</mask>
<path d="M18.1526 6.98717C18.2821 6.98717 18.4096 6.92443 18.4933 6.80618L20.6647 3.72168C20.8053 3.52219 20.7667 3.23922 20.5789 3.08978C20.3906 2.94041 20.1247 2.9819 19.9845 3.18097L17.8131 6.26548C17.6725 6.46496 17.7111 6.74793 17.8989 6.89738C17.9749 6.95779 18.0641 6.98717 18.1526 6.98717Z" fill="#F72F2F"/>
<path d="M5.9026 6.92442C5.77723 6.92442 5.65272 6.86575 5.56906 6.7529L3.32255 3.73121C3.17718 3.53579 3.20819 3.25191 3.39262 3.09756C3.57571 2.94313 3.84379 2.97608 3.98908 3.172L6.23567 6.19377C6.38104 6.38919 6.35003 6.67307 6.1656 6.82741C6.0878 6.8928 5.99477 6.92442 5.9026 6.92442Z" fill="#F72F2F"/>
<path fill-rule="evenodd" clip-rule="evenodd" d="M17.3818 17.8406H18.9415C19.8788 17.8406 20.6409 18.5496 20.6414 19.4203V19.9845C20.6414 20.5541 20.0819 21 19.3668 21H4.17812C3.46355 21 2.90356 20.5541 2.90356 19.9845V19.4203C2.90356 18.5491 3.66571 17.8406 4.60298 17.8406H5.90308V16.5615H3.99971C3.81232 16.5615 3.6479 16.432 3.59353 16.2424C3.44355 15.7198 3.36365 15.1493 3.36365 14.5933C3.36365 11.1747 6.64311 8.14767 10.6249 7.64438L9.92086 5.7573C9.47015 5.50686 9.1638 5.05237 9.1638 4.52743C9.1638 3.73579 9.8529 3.09219 10.6996 3.09219H12.8601C13.7063 3.09219 14.3951 3.73621 14.3951 4.52743C14.3951 5.06358 14.0751 5.5262 13.6074 5.77265L12.9144 7.63036C17.0887 8.07987 20.2161 10.9729 20.2161 14.5932C20.2161 15.152 20.1358 15.6935 19.968 16.2482C19.9119 16.4351 19.7483 16.5615 19.5635 16.5615H17.3818V17.8406ZM10.6992 3.99478H12.8597C13.231 3.99478 13.545 4.23849 13.545 4.52735C13.545 4.81579 13.231 5.05951 12.8597 5.05951H10.6992C10.3275 5.05951 10.0131 4.81579 10.0131 4.52735C10.0131 4.23849 10.3271 3.99478 10.6992 3.99478ZM6.75231 16.5615H16.5321V17.8406H6.75231V16.5615ZM5.91365 14.1721C5.9638 13.9993 7.19289 9.92771 11.7308 9.37165C11.9628 9.34269 12.1748 9.52102 12.2015 9.76838C12.2283 10.0157 12.0609 10.24 11.8281 10.2684C7.83568 10.7577 6.73617 14.4009 6.72555 14.4375C6.66946 14.6316 6.50121 14.7562 6.31983 14.7562C6.27859 14.7562 6.23657 14.7498 6.19493 14.7363C5.97059 14.6627 5.84436 14.41 5.91365 14.1721Z" fill="#F72F2F"/>
<path d="M3.32758 9.66224C3.45717 9.66224 3.58465 9.5995 3.66831 9.48126C3.80891 9.28177 3.77024 8.9988 3.58246 8.84935L0.679419 6.54263C0.491169 6.39327 0.225275 6.43434 0.0845944 6.63383C-0.0560858 6.83332 -0.0173421 7.11628 0.17044 7.26573L3.07348 9.57254C3.14956 9.63295 3.23924 9.66224 3.32758 9.66224Z" fill="#F72F2F"/>
<path d="M23.3116 6.52953C23.4964 6.3751 23.7628 6.40895 23.9085 6.60396C24.0538 6.79988 24.0228 7.08334 23.8385 7.23819L20.994 9.62532C20.9162 9.69071 20.8232 9.72232 20.731 9.72232C20.6052 9.72232 20.4812 9.66365 20.3971 9.5508C20.2517 9.35488 20.2827 9.071 20.4671 8.91665L23.3116 6.52953Z" fill="#F72F2F"/>
<path d="M18.1526 6.98717C18.2821 6.98717 18.4096 6.92443 18.4933 6.80618L20.6647 3.72168C20.8053 3.52219 20.7667 3.23922 20.5789 3.08978C20.3906 2.94041 20.1247 2.9819 19.9845 3.18097L17.8131 6.26548C17.6725 6.46496 17.7111 6.74793 17.8989 6.89738C17.9749 6.95779 18.0641 6.98717 18.1526 6.98717Z" stroke="#F72F2F" stroke-width="2" mask="url(#path-1-inside-1_2459_124)"/>
<path d="M5.9026 6.92442C5.77723 6.92442 5.65272 6.86575 5.56906 6.7529L3.32255 3.73121C3.17718 3.53579 3.20819 3.25191 3.39262 3.09756C3.57571 2.94313 3.84379 2.97608 3.98908 3.172L6.23567 6.19377C6.38104 6.38919 6.35003 6.67307 6.1656 6.82741C6.0878 6.8928 5.99477 6.92442 5.9026 6.92442Z" stroke="#F72F2F" stroke-width="2" mask="url(#path-1-inside-1_2459_124)"/>
<path fill-rule="evenodd" clip-rule="evenodd" d="M17.3818 17.8406H18.9415C19.8788 17.8406 20.6409 18.5496 20.6414 19.4203V19.9845C20.6414 20.5541 20.0819 21 19.3668 21H4.17812C3.46355 21 2.90356 20.5541 2.90356 19.9845V19.4203C2.90356 18.5491 3.66571 17.8406 4.60298 17.8406H5.90308V16.5615H3.99971C3.81232 16.5615 3.6479 16.432 3.59353 16.2424C3.44355 15.7198 3.36365 15.1493 3.36365 14.5933C3.36365 11.1747 6.64311 8.14767 10.6249 7.64438L9.92086 5.7573C9.47015 5.50686 9.1638 5.05237 9.1638 4.52743C9.1638 3.73579 9.8529 3.09219 10.6996 3.09219H12.8601C13.7063 3.09219 14.3951 3.73621 14.3951 4.52743C14.3951 5.06358 14.0751 5.5262 13.6074 5.77265L12.9144 7.63036C17.0887 8.07987 20.2161 10.9729 20.2161 14.5932C20.2161 15.152 20.1358 15.6935 19.968 16.2482C19.9119 16.4351 19.7483 16.5615 19.5635 16.5615H17.3818V17.8406ZM10.6992 3.99478H12.8597C13.231 3.99478 13.545 4.23849 13.545 4.52735C13.545 4.81579 13.231 5.05951 12.8597 5.05951H10.6992C10.3275 5.05951 10.0131 4.81579 10.0131 4.52735C10.0131 4.23849 10.3271 3.99478 10.6992 3.99478ZM6.75231 16.5615H16.5321V17.8406H6.75231V16.5615ZM5.91365 14.1721C5.9638 13.9993 7.19289 9.92771 11.7308 9.37165C11.9628 9.34269 12.1748 9.52102 12.2015 9.76838C12.2283 10.0157 12.0609 10.24 11.8281 10.2684C7.83568 10.7577 6.73617 14.4009 6.72555 14.4375C6.66946 14.6316 6.50121 14.7562 6.31983 14.7562C6.27859 14.7562 6.23657 14.7498 6.19493 14.7363C5.97059 14.6627 5.84436 14.41 5.91365 14.1721Z" stroke="#F72F2F" stroke-width="2" mask="url(#path-1-inside-1_2459_124)"/>
<path d="M3.32758 9.66224C3.45717 9.66224 3.58465 9.5995 3.66831 9.48126C3.80891 9.28177 3.77024 8.9988 3.58246 8.84935L0.679419 6.54263C0.491169 6.39327 0.225275 6.43434 0.0845944 6.63383C-0.0560858 6.83332 -0.0173421 7.11628 0.17044 7.26573L3.07348 9.57254C3.14956 9.63295 3.23924 9.66224 3.32758 9.66224Z" stroke="#F72F2F" stroke-width="2" mask="url(#path-1-inside-1_2459_124)"/>
<path d="M23.3116 6.52953C23.4964 6.3751 23.7628 6.40895 23.9085 6.60396C24.0538 6.79988 24.0228 7.08334 23.8385 7.23819L20.994 9.62532C20.9162 9.69071 20.8232 9.72232 20.731 9.72232C20.6052 9.72232 20.4812 9.66365 20.3971 9.5508C20.2517 9.35488 20.2827 9.071 20.4671 8.91665L23.3116 6.52953Z" stroke="#F72F2F" stroke-width="2" mask="url(#path-1-inside-1_2459_124)"/>
</g>
<defs>
<clipPath id="clip0_2459_124">
<rect width="24" height="24" fill="white"/>
</clipPath>
</defs>
</svg>
