<svg width="24" height="24" viewBox="0 0 24 24" fill="none" xmlns="http://www.w3.org/2000/svg">
<g clip-path="url(#clip0_1408_4620)">
<path d="M4.05575 15.7938C4.03875 15.7355 4.02283 15.6764 4.008 15.6167C4.07295 15.6857 4.14722 15.7452 4.22751 15.7938H4.05575ZM19.5084 15.7938H19.3441C19.385 15.769 19.4239 15.7418 19.4602 15.7125C19.4939 15.6854 19.5267 15.6556 19.558 15.6231C19.5426 15.6798 19.5261 15.7367 19.5084 15.7938ZM4.07182 15.8477L4.0718 15.8477L4.07182 15.8477ZM19.293 19.1221H4.25288V18.9917C4.25623 18.9841 4.26814 18.9643 4.30504 18.9366C4.36846 18.889 4.47423 18.8475 4.60258 18.8475H18.9415C19.0699 18.8475 19.1756 18.889 19.239 18.9366C19.2761 18.9644 19.288 18.9843 19.2913 18.9918L19.293 19.1221ZM4.25173 18.9951C4.25168 18.9951 4.25179 18.9945 4.25222 18.9933L4.25173 18.9951ZM19.2924 18.9951C19.2923 18.9951 19.2921 18.9945 19.2919 18.9933L19.2924 18.9951ZM4.755 14.944C4.75176 14.9428 4.74754 14.9405 4.74351 14.9375C4.72287 14.7725 4.71249 14.6056 4.71249 14.441C4.71249 13.1045 5.48414 11.7959 6.78753 10.8023C8.08686 9.81182 9.87175 9.17273 11.7796 9.17273C15.893 9.17273 18.8659 11.6013 18.8659 14.441C18.8659 14.6098 18.855 14.7722 18.833 14.9337C18.8274 14.9381 18.8212 14.9415 18.8162 14.9434C18.8152 14.9437 18.8145 14.944 18.8139 14.9441H4.7553C4.75521 14.9441 4.75511 14.9441 4.755 14.944ZM11.8866 6.81647L11.7669 7.11849L11.6472 6.81647H11.8866ZM3.60735 19.8207L3.73751 19.5784L3.60735 19.8207Z" fill="#F72F2F" stroke="#F72F2F"/>
<path d="M11.7308 9.52588C7.19289 10.0493 5.9638 13.882 5.91365 14.0447C5.84436 14.2685 5.97059 14.5065 6.19493 14.5758C6.23657 14.5885 6.27859 14.5944 6.31983 14.5944C6.50121 14.5944 6.66946 14.4772 6.72555 14.2945C6.73617 14.26 7.83568 10.8306 11.8281 10.37C12.0609 10.3432 12.2283 10.1321 12.2015 9.89934C12.1748 9.66648 11.9628 9.49862 11.7308 9.52588Z" fill="#F5F5F5"/>
<mask id="path-3-inside-1_1408_4620" fill="white">
<path d="M3.32758 9.79942C3.45717 9.79942 3.58465 9.74037 3.66831 9.62906C3.80891 9.44127 3.77024 9.17491 3.58246 9.03423L0.679419 6.86287C0.491169 6.72226 0.225275 6.76093 0.0845944 6.94871C-0.0560858 7.13649 -0.0173421 7.40286 0.17044 7.54354L3.07348 9.71498C3.14956 9.77185 3.23924 9.79942 3.32758 9.79942Z"/>
</mask>
<path d="M3.32758 9.79942C3.45717 9.79942 3.58465 9.74037 3.66831 9.62906C3.80891 9.44127 3.77024 9.17491 3.58246 9.03423L0.679419 6.86287C0.491169 6.72226 0.225275 6.76093 0.0845944 6.94871C-0.0560858 7.13649 -0.0173421 7.40286 0.17044 7.54354L3.07348 9.71498C3.14956 9.77185 3.23924 9.79942 3.32758 9.79942Z" fill="#F72F2F"/>
<path d="M3.66831 9.62906L4.4677 10.2299L4.46879 10.2284L3.66831 9.62906ZM3.58246 9.03423L4.18204 8.23391L4.18142 8.23345L3.58246 9.03423ZM0.679419 6.86287L1.27837 6.06208L1.27782 6.06167L0.679419 6.86287ZM0.17044 7.54354L-0.429134 8.34386L-0.428529 8.34431L0.17044 7.54354ZM3.07348 9.71498L2.47451 10.5158L2.4748 10.516L3.07348 9.71498ZM3.32758 10.7994C3.76026 10.7994 4.18845 10.6014 4.4677 10.2299L2.86891 9.02825C2.98085 8.87932 3.15408 8.79942 3.32758 8.79942V10.7994ZM4.46879 10.2284C4.9415 9.59708 4.81019 8.70451 4.18204 8.23391L2.98289 9.83455C2.73029 9.64531 2.67632 9.28547 2.86783 9.0297L4.46879 10.2284ZM4.18142 8.23345L1.27837 6.06208L0.0804646 7.66365L2.98351 9.83501L4.18142 8.23345ZM1.27782 6.06167C0.646784 5.59036 -0.244819 5.72056 -0.715725 6.34914L0.884914 7.54829C0.695368 7.80129 0.335554 7.85417 0.0810164 7.66406L1.27782 6.06167ZM-0.715725 6.34914C-1.18895 6.9808 -1.05704 7.87345 -0.429134 8.34386L0.770014 6.74322C1.02236 6.93226 1.07678 7.29219 0.884914 7.54829L-0.715725 6.34914ZM-0.428529 8.34431L2.47451 10.5158L3.67245 8.91421L0.769409 6.74276L-0.428529 8.34431ZM2.4748 10.516C2.73037 10.707 3.03185 10.7994 3.32758 10.7994V8.79942C3.44662 8.79942 3.56876 8.83671 3.67217 8.91399L2.4748 10.516Z" fill="#F72F2F" mask="url(#path-3-inside-1_1408_4620)"/>
<path d="M3.59672 3.99989L3.59674 3.99991C3.59673 3.99991 3.59672 3.9999 3.59672 3.99989ZM3.59672 3.99989L3.59666 3.99982M3.59672 3.99989C3.5967 3.99987 3.59668 3.99984 3.59666 3.99982M3.59666 3.99982L3.59647 3.99958M3.59666 3.99982C3.5966 3.99974 3.59653 3.99966 3.59647 3.99958M3.59647 3.99958L3.59635 3.99943L3.59635 3.99943C3.59639 3.99948 3.59643 3.99953 3.59647 3.99958ZM5.84332 6.84437C5.8433 6.84434 5.84327 6.8443 5.84324 6.84427L5.84332 6.84437ZM5.96178 6.75128L5.96161 6.75107C5.96167 6.75114 5.96172 6.75121 5.96178 6.75128Z" fill="#F72F2F" stroke="#F72F2F"/>
<path d="M20.5789 3.61261C20.7667 3.75329 20.8054 4.01966 20.6648 4.20744L18.4933 7.11095M20.5789 3.61261C20.3907 3.47201 20.1248 3.51107 19.9846 3.69846M20.5789 3.61261L20.3243 3.9525L20.3243 3.95252L20.2645 3.90781L19.9846 3.69846M20.5789 3.61261L20.3248 3.95288L20.3248 3.95289L20.35 3.97175L20.35 3.9718L20.385 3.99791L20.3849 3.99793L20.3849 3.99801M19.9846 3.69846L17.8131 6.60197C17.6725 6.78975 17.7112 7.05612 17.899 7.1968M19.9846 3.69846L20.2644 3.90787L20.3242 3.9526L20.3241 3.9527L20.2791 4.01277C20.2468 3.98855 20.2391 3.94196 20.2643 3.90799L18.0936 6.81055M17.899 7.1968C17.975 7.25366 18.0642 7.28131 18.1526 7.28131C18.2822 7.28131 18.4097 7.22226 18.4933 7.11095M17.899 7.1968L18.1526 6.85825L18.1536 6.85691L18.1536 6.85689L18.2134 6.9016L18.4933 7.11095M17.899 7.1968L18.1526 6.85781L18.1534 6.85675L18.1534 6.85673L18.1526 6.85613L18.128 6.83773L18.1279 6.8377L18.0929 6.8115L18.0929 6.81148L18.093 6.81132L18.0936 6.81055M18.4933 7.11095L18.2139 6.90094L20.3848 3.99809M18.0936 6.81055L18.1526 6.85487L18.154 6.85593L18.1985 6.79645C18.1853 6.78655 18.1686 6.78131 18.1526 6.78131C18.1306 6.78131 18.1077 6.79174 18.0936 6.81055ZM20.3849 3.99801L20.3247 3.95297L20.3246 3.95307L20.2797 4.01321C20.3131 4.03814 20.3601 4.03105 20.3848 3.99809M20.3849 3.99801L20.3848 3.99809M20.3849 3.99801C20.3849 3.99803 20.3848 3.99806 20.3848 3.99809M18.2139 6.90094L18.1542 6.85609L18.1987 6.79664C18.2309 6.82074 18.2387 6.867 18.2139 6.90094Z" fill="#F72F2F" stroke="#F72F2F"/>
<path d="M23.528 7.12567L23.574 7.18414L23.5157 7.23001C23.4909 7.19847 23.4957 7.15147 23.528 7.12567ZM20.684 9.37232C20.6841 9.3723 20.6841 9.37228 20.6841 9.37227L20.684 9.37232Z" fill="#F72F2F" stroke="#F72F2F"/>
</g>
<defs>
<clipPath id="clip0_1408_4620">
<rect width="24" height="24" fill="white"/>
</clipPath>
</defs>
</svg>
