<svg width="24" height="28" viewBox="0 0 24 28" fill="none" xmlns="http://www.w3.org/2000/svg">
<path fill-rule="evenodd" clip-rule="evenodd" d="M13.0327 1.89685C13.0327 1.34457 12.585 0.896851 12.0327 0.896851C11.4804 0.896851 11.0327 1.34457 11.0327 1.89685V18.3443L7.73882 15.0755C7.3468 14.6865 6.71364 14.6889 6.32461 15.0809C5.93559 15.4729 5.93801 16.1061 6.33003 16.4951L11.3283 21.4553C11.7182 21.8422 12.3472 21.8422 12.7371 21.4553L17.7354 16.4951C18.1274 16.1061 18.1298 15.4729 17.7408 15.0809C17.3518 14.6889 16.7186 14.6865 16.3266 15.0755L13.0327 18.3443V1.89685ZM2.69712 13.3014C3.00427 13.0762 3.47059 12.9199 3.99919 12.9199H6.67685C7.22913 12.9199 7.67685 12.4722 7.67685 11.9199C7.67685 11.3676 7.22913 10.9199 6.67685 10.9199H3.99919C3.10748 10.9199 2.21165 11.1773 1.51448 11.6885C0.812266 12.2034 0.321533 12.9795 0.321533 13.8833V24.093C0.321533 24.9967 0.812266 25.7728 1.51448 26.2877C2.21165 26.7989 3.10748 27.0564 3.99919 27.0564H20.0651C20.9568 27.0564 21.8527 26.7989 22.5498 26.2877C23.2521 25.7728 23.7428 24.9967 23.7428 24.093V13.8833C23.7428 12.9795 23.2521 12.2034 22.5498 11.6885C21.8527 11.1773 20.9568 10.9199 20.0651 10.9199H17.3875C16.8352 10.9199 16.3875 11.3676 16.3875 11.9199C16.3875 12.4722 16.8352 12.9199 17.3875 12.9199H20.0651C20.5937 12.9199 21.0601 13.0762 21.3672 13.3014C21.6693 13.5229 21.7428 13.7456 21.7428 13.8833V24.093C21.7428 24.2307 21.6693 24.4533 21.3672 24.6749C21.0601 24.9001 20.5937 25.0564 20.0651 25.0564H3.99919C3.47059 25.0564 3.00427 24.9001 2.69712 24.6749C2.39502 24.4533 2.32153 24.2307 2.32153 24.093V13.8833C2.32153 13.7456 2.39502 13.5229 2.69712 13.3014Z" fill="#F72F2F"/>
</svg>
