<svg width="24" height="24" viewBox="0 0 24 24" fill="none" xmlns="http://www.w3.org/2000/svg">
<path fill-rule="evenodd" clip-rule="evenodd" d="M12.9725 3.10481C12.9725 2.55253 12.5247 2.10481 11.9725 2.10481C11.4202 2.10481 10.9725 2.55253 10.9725 3.10481V14.4675L9.40561 12.7275C9.03604 12.3171 8.40374 12.284 7.99333 12.6536C7.58293 13.0231 7.54982 13.6554 7.9194 14.0658L11.2293 17.7415C11.419 17.9521 11.6891 18.0723 11.9725 18.0723C12.2558 18.0723 12.5259 17.9521 12.7156 17.7415L16.0255 14.0658C16.3951 13.6554 16.362 13.0231 15.9516 12.6536C15.5412 12.284 14.9089 12.3171 14.5393 12.7275L12.9725 14.4675V3.10481ZM6.20768 9.97593C6.34594 9.84223 6.54043 9.76142 6.75 9.76142H8.5C9.05228 9.76142 9.5 9.31371 9.5 8.76142C9.5 8.20914 9.05228 7.76142 8.5 7.76142H6.75C6.03131 7.76142 5.33556 8.03716 4.81745 8.53812C4.2982 9.0402 4 9.72846 4 10.4535V19.2524C4 19.9774 4.2982 20.6657 4.81745 21.1678C5.33556 21.6687 6.03131 21.9445 6.75 21.9445H17.25C17.9687 21.9445 18.6644 21.6687 19.1825 21.1678C19.7018 20.6657 20 19.9774 20 19.2524V10.4535C20 9.72846 19.7018 9.0402 19.1825 8.53812C18.6644 8.03716 17.9687 7.76142 17.25 7.76142H15.5C14.9477 7.76142 14.5 8.20914 14.5 8.76142C14.5 9.31371 14.9477 9.76142 15.5 9.76142H17.25C17.4596 9.76142 17.6541 9.84223 17.7923 9.97593C17.9294 10.1085 18 10.281 18 10.4535V19.2524C18 19.4249 17.9294 19.5974 17.7923 19.73C17.6541 19.8637 17.4596 19.9445 17.25 19.9445H6.75C6.54043 19.9445 6.34594 19.8637 6.20768 19.73C6.07055 19.5974 6 19.4249 6 19.2524V10.4535C6 10.281 6.07055 10.1085 6.20768 9.97593Z" fill="#F72F2F"/>
</svg>
