<svg width="24" height="24" viewBox="0 0 24 24" fill="none" xmlns="http://www.w3.org/2000/svg">
<path d="M14.5 12C14.5 13.3807 13.3807 14.5 12 14.5C10.6193 14.5 9.5 13.3807 9.5 12C9.5 10.6193 10.6193 9.5 12 9.5C13.3807 9.5 14.5 10.6193 14.5 12Z" fill="#7E7E7E" stroke="#F72F2F"/>
<path d="M18.0836 6.89206L18.0834 6.89193C16.1609 5.6491 14.0509 5 11.984 5C10.09 5 8.21823 5.54032 6.41608 6.62142L6.41605 6.62144C4.57726 7.72435 2.89701 9.34426 1.42786 11.4505L18.0836 6.89206ZM18.0836 6.89206C19.8241 8.01608 21.3839 9.5934 22.5882 11.4559C22.6928 11.6181 22.7486 11.8068 22.7492 11.9998C22.7497 12.193 22.6949 12.3822 22.5911 12.5451C21.3915 14.4225 19.8357 16.0046 18.0977 17.124C16.1847 18.3555 14.0699 19 11.984 19C9.84783 19 7.78986 18.3751 5.86634 17.129L5.86611 17.1288C4.15568 16.0221 2.61176 14.4437 1.40894 12.5614L1.40788 12.5598M18.0836 6.89206L1.40788 12.5598M1.40788 12.5598C1.30087 12.3937 1.24563 12.1996 1.24919 12.0021C1.25274 11.8047 1.31488 11.6128 1.42771 11.4507L1.40788 12.5598ZM12 17H12.0005C13.326 16.9985 14.5967 16.4713 15.534 15.534C16.4712 14.5968 16.9984 13.326 17 12.0006V12C17 11.0111 16.7067 10.0444 16.1573 9.22215C15.6079 8.3999 14.827 7.75904 13.9134 7.3806C12.9997 7.00216 11.9944 6.90315 11.0245 7.09607C10.0546 7.289 9.16369 7.7652 8.46442 8.46447C7.76516 9.16373 7.28896 10.0546 7.09603 11.0245C6.90311 11.9945 7.00212 12.9998 7.38056 13.9134C7.759 14.827 8.39986 15.6079 9.22211 16.1573C10.0444 16.7068 11.0111 17 12 17Z" fill="#7E7E7E" stroke="#F72F2F"/>
</svg>
