<svg width="32" height="32" viewBox="0 0 32 32" fill="none" xmlns="http://www.w3.org/2000/svg">
<path d="M28.6034 26.4922L22.6431 20.8685L24.2559 19.2557L24.2789 19.2787C24.4794 19.4787 24.751 19.5909 25.0341 19.5909C25.3173 19.5909 25.5888 19.4787 25.7893 19.2787L26.2092 18.8595C26.4086 18.6588 26.5206 18.3873 26.5206 18.1043C26.5206 17.8213 26.4086 17.5498 26.2092 17.3491L21.4399 12.5786C21.3859 12.5252 21.3264 12.4776 21.2626 12.4365V4.48C21.2626 4.05566 21.094 3.64869 20.794 3.34863C20.4939 3.04858 20.0869 2.88 19.6626 2.88H4.47988C4.05554 2.88 3.64857 3.04858 3.34851 3.34863C3.04845 3.64869 2.87988 4.05566 2.87988 4.48V27.52C2.87988 27.9443 3.04845 28.3513 3.34851 28.6514C3.64857 28.9514 4.05554 29.12 4.47988 29.12H19.6607C20.085 29.12 20.492 28.9514 20.7921 28.6514C21.0921 28.3513 21.2607 27.9443 21.2607 27.52V23.0592L26.4914 28.6035C26.6239 28.7571 26.7862 28.882 26.9685 28.9708C27.1508 29.0596 27.3493 29.1104 27.5519 29.12H27.5704C27.8802 29.1314 28.1859 29.0463 28.4452 28.8765C28.7045 28.7067 28.9047 28.4606 29.0181 28.1721C29.1315 27.8836 29.1525 27.567 29.0782 27.2661C29.0039 26.9652 28.838 26.6947 28.6034 26.4922Z" fill="#F72F2F"/>
<path d="M19.6608 28.48H18.3296C18.2811 28.0815 18.0888 27.7145 17.7887 27.4478C17.4887 27.1811 17.1016 27.0331 16.7002 27.0317H16.6829C16.6725 26.7001 16.5337 26.3856 16.2959 26.1543C16.0581 25.9231 15.7397 25.7932 15.408 25.792H8.73218C8.40046 25.7934 8.08222 25.9234 7.84452 26.1548C7.60682 26.3862 7.46822 26.7008 7.45794 27.0323H7.44066C7.03929 27.0336 6.6522 27.1814 6.35215 27.448C6.05209 27.7146 5.85973 28.0816 5.81122 28.48H4.48002C4.22541 28.48 3.98123 28.3789 3.8012 28.1988C3.62116 28.0188 3.52002 27.7746 3.52002 27.52V4.48002C3.52002 4.22541 3.62116 3.98123 3.8012 3.8012C3.98123 3.62116 4.22541 3.52002 4.48002 3.52002H19.6608C19.9154 3.52002 20.1596 3.62116 20.3396 3.8012C20.5197 3.98123 20.6208 4.22541 20.6208 4.48002V12.272C20.3601 12.2854 20.1135 12.3946 19.9283 12.5786L19.5091 12.9984C19.4099 13.0975 19.3312 13.2152 19.2775 13.3447C19.2238 13.4742 19.1962 13.6131 19.1962 13.7533C19.1962 13.8935 19.2238 14.0324 19.2775 14.1619C19.3312 14.2914 19.4099 14.4091 19.5091 14.5082L19.5322 14.5319L14.72 19.3466L14.6963 19.3235C14.4961 19.1235 14.2245 19.0111 13.9415 19.0111C13.6584 19.0111 13.3869 19.1235 13.1866 19.3235L12.7674 19.7434C12.6682 19.8425 12.5895 19.9601 12.5358 20.0897C12.4821 20.2192 12.4544 20.358 12.4544 20.4983C12.4544 20.6385 12.4821 20.7773 12.5358 20.9069C12.5895 21.0364 12.6682 21.1541 12.7674 21.2531L17.536 26.0237C17.6352 26.1229 17.7529 26.2017 17.8825 26.2554C18.012 26.3091 18.1509 26.3367 18.2912 26.3367C18.4315 26.3367 18.5704 26.3091 18.7 26.2554C18.8295 26.2017 18.9473 26.1229 19.0464 26.0237L19.4656 25.6045C19.6654 25.4039 19.7776 25.1324 19.7776 24.8493C19.7776 24.5662 19.6654 24.2947 19.4656 24.0941L19.4426 24.0711L20.6227 22.8909V27.52C20.6227 27.6462 20.5978 27.7712 20.5495 27.8878C20.5011 28.0044 20.4302 28.1104 20.3409 28.1995C20.2515 28.2887 20.1455 28.3594 20.0288 28.4075C19.9121 28.4556 19.787 28.4803 19.6608 28.48Z" fill="#F5F5F5"/>
<path d="M6.95232 8.1671H17.1885C17.2734 8.1671 17.3547 8.13339 17.4148 8.07337C17.4748 8.01336 17.5085 7.93197 17.5085 7.8471C17.5085 7.76223 17.4748 7.68084 17.4148 7.62083C17.3547 7.56081 17.2734 7.5271 17.1885 7.5271H6.95232C6.86745 7.5271 6.78606 7.56081 6.72605 7.62083C6.66604 7.68084 6.63232 7.76223 6.63232 7.8471C6.63232 7.93197 6.66604 8.01336 6.72605 8.07337C6.78606 8.13339 6.86745 8.1671 6.95232 8.1671Z" fill="#F72F2F"/>
<path d="M6.95232 11.7165H17.1885C17.2734 11.7165 17.3547 11.6828 17.4148 11.6228C17.4748 11.5628 17.5085 11.4814 17.5085 11.3965C17.5085 11.3117 17.4748 11.2303 17.4148 11.1703C17.3547 11.1103 17.2734 11.0765 17.1885 11.0765H6.95232C6.86745 11.0765 6.78606 11.1103 6.72605 11.1703C6.66604 11.2303 6.63232 11.3117 6.63232 11.3965C6.63232 11.4814 6.66604 11.5628 6.72605 11.6228C6.78606 11.6828 6.86745 11.7165 6.95232 11.7165Z" fill="#F72F2F"/>
<path d="M6.95232 15.2666H17.1885C17.2734 15.2666 17.3547 15.2329 17.4148 15.1729C17.4748 15.1128 17.5085 15.0315 17.5085 14.9466C17.5085 14.8617 17.4748 14.7803 17.4148 14.7203C17.3547 14.6603 17.2734 14.6266 17.1885 14.6266H6.95232C6.86745 14.6266 6.78606 14.6603 6.72605 14.7203C6.66604 14.7803 6.63232 14.8617 6.63232 14.9466C6.63232 15.0315 6.66604 15.1128 6.72605 15.1729C6.78606 15.2329 6.86745 15.2666 6.95232 15.2666Z" fill="#F72F2F"/>
<path d="M6.95232 18.816H12.8448C12.9297 18.816 13.0111 18.7823 13.0711 18.7223C13.1311 18.6623 13.1648 18.5809 13.1648 18.496C13.1648 18.4112 13.1311 18.3298 13.0711 18.2698C13.0111 18.2097 12.9297 18.176 12.8448 18.176H6.95232C6.86745 18.176 6.78606 18.2097 6.72605 18.2698C6.66604 18.3298 6.63232 18.4112 6.63232 18.496C6.63232 18.5809 6.66604 18.6623 6.72605 18.7223C6.78606 18.7823 6.86745 18.816 6.95232 18.816Z" fill="#F72F2F"/>
<path d="M12.0128 21.7255H6.95232C6.86745 21.7255 6.78606 21.7592 6.72605 21.8192C6.66604 21.8792 6.63232 21.9606 6.63232 22.0455C6.63232 22.1303 6.66604 22.2117 6.72605 22.2717C6.78606 22.3317 6.86745 22.3655 6.95232 22.3655H12.0128C12.0977 22.3655 12.1791 22.3317 12.2391 22.2717C12.2991 22.2117 12.3328 22.1303 12.3328 22.0455C12.3328 21.9606 12.2991 21.8792 12.2391 21.8192C12.1791 21.7592 12.0977 21.7255 12.0128 21.7255Z" fill="#F72F2F"/>
<path d="M19.985 14.9842L15.1694 19.7998L18.9885 23.6189L23.8041 18.8033L19.985 14.9842Z" fill="#F72F2F"/>
<path d="M19.0112 24.5465C19.0915 24.6268 19.1366 24.7357 19.1366 24.8492C19.1366 24.9628 19.0915 25.0716 19.0112 25.1519L18.592 25.5711C18.5105 25.6491 18.4021 25.6927 18.2893 25.6927C18.1765 25.6927 18.068 25.6491 17.9865 25.5711L13.2166 20.7999C13.1769 20.7602 13.1454 20.7131 13.1239 20.6612C13.1024 20.6093 13.0913 20.5537 13.0913 20.4975C13.0913 20.4414 13.1024 20.3858 13.1239 20.3339C13.1454 20.282 13.1769 20.2348 13.2166 20.1951L13.6358 19.7753C13.7162 19.6954 13.8249 19.6505 13.9382 19.6505C14.0516 19.6505 14.1603 19.6954 14.2406 19.7753L19.0112 24.5465Z" fill="#F72F2F"/>
<path d="M25.7567 17.8016C25.8367 17.8821 25.8815 17.9909 25.8815 18.1043C25.8815 18.2178 25.8367 18.3266 25.7567 18.407L25.3369 18.8262C25.2565 18.9064 25.1476 18.9513 25.0341 18.9513C24.9207 18.9513 24.8118 18.9064 24.7314 18.8262L19.9615 14.0557C19.9218 14.016 19.8903 13.9688 19.8688 13.9169C19.8472 13.8651 19.8362 13.8094 19.8362 13.7533C19.8362 13.6971 19.8472 13.6415 19.8688 13.5896C19.8903 13.5377 19.9218 13.4906 19.9615 13.4509L20.3807 13.031C20.461 12.9511 20.5698 12.9062 20.6831 12.9062C20.7964 12.9062 20.9051 12.9511 20.9855 13.031L25.7567 17.8016Z" fill="#F72F2F"/>
<path d="M16.7001 27.6716C16.9328 27.6721 17.1582 27.7528 17.3384 27.9C17.5187 28.0472 17.6427 28.252 17.6896 28.4799H6.45117C6.49798 28.252 6.62195 28.0471 6.80218 27.8999C6.98241 27.7526 7.20788 27.672 7.44061 27.6716H16.7001Z" fill="#F72F2F"/>
<path d="M8.10181 27.0317C8.11046 26.8701 8.18056 26.7179 8.29776 26.6063C8.41495 26.4947 8.57037 26.4321 8.73221 26.4314H15.408C15.5699 26.4321 15.7254 26.4947 15.8427 26.6063C15.96 26.7179 16.0303 26.8701 16.0391 27.0317H8.10181Z" fill="#F72F2F"/>
<path d="M28.1823 28.1825C28.1054 28.2729 28.0104 28.3462 27.9033 28.3974C27.7962 28.4487 27.6796 28.4769 27.5609 28.4801C27.4441 28.4712 27.3304 28.4387 27.2267 28.3844C27.1229 28.3302 27.0313 28.2554 26.9574 28.1645L21.3215 22.1908L22.1907 21.3217L28.1644 26.9575C28.2551 27.0315 28.3299 27.1231 28.3841 27.2269C28.4383 27.3306 28.4709 27.4443 28.4799 27.561C28.4736 27.6791 28.444 27.7947 28.393 27.9013C28.3419 28.008 28.2703 28.1035 28.1823 28.1825Z" fill="#F72F2F"/>
</svg>
