<svg width="24" height="24" viewBox="0 0 24 24" fill="none" xmlns="http://www.w3.org/2000/svg">
<path d="M4 4.2C4 3.53726 4.5372 3 5.19986 3H15.6186C16.2813 3 16.8185 3.53726 16.8185 4.2V20.8C16.8185 21.4627 16.2813 22 15.6186 22H5.19986C4.53719 22 4 21.4627 4 20.8V4.2Z" fill="#F72F2F"/>
<path d="M7.28245 3C7.28245 2.44772 7.73012 2 8.28234 2H11.9819C12.5341 2 12.9818 2.44772 12.9818 3H7.28245Z" fill="#F72F2F"/>
<path d="M8.01955 3.47C8.01955 3.21043 8.22995 3 8.48949 3H11.8491C12.1086 3 12.319 3.21043 12.319 3.47C12.319 3.72957 12.1086 3.94 11.8491 3.94H8.48949C8.22995 3.94 8.01955 3.72957 8.01955 3.47Z" fill="#F5F5F5"/>
<path d="M5.28269 7.5C5.28269 7.22386 5.50652 7 5.78263 7H14.7816C15.0577 7 15.2815 7.22386 15.2815 7.5C15.2815 7.77614 15.0577 8 14.7816 8H5.78263C5.50652 8 5.28269 7.77614 5.28269 7.5Z" fill="#F5F5F5"/>
<path d="M5.28269 16.5C5.28269 16.2239 5.50652 16 5.78263 16H9.78216C10.0583 16 10.2821 16.2239 10.2821 16.5C10.2821 16.7761 10.0583 17 9.78216 17H5.78263C5.50652 17 5.28269 16.7761 5.28269 16.5Z" fill="#F5F5F5"/>
<path d="M5.28269 19.5C5.28269 19.2239 5.50652 19 5.78263 19H7.78239C8.0585 19 8.28234 19.2239 8.28234 19.5C8.28234 19.7761 8.0585 20 7.78239 20H5.78263C5.50652 20 5.28269 19.7761 5.28269 19.5Z" fill="#F5F5F5"/>
<path d="M5.28269 10.5C5.28269 10.2239 5.50652 10 5.78263 10H14.7816C15.0577 10 15.2815 10.2239 15.2815 10.5C15.2815 10.7761 15.0577 11 14.7816 11H5.78263C5.50652 11 5.28269 10.7761 5.28269 10.5Z" fill="#F5F5F5"/>
<path d="M5.28269 13.5C5.28269 13.2239 5.50652 13 5.78263 13H14.7816C15.0577 13 15.2815 13.2239 15.2815 13.5C15.2815 13.7761 15.0577 14 14.7816 14H5.78263C5.50652 14 5.28269 13.7761 5.28269 13.5Z" fill="#F5F5F5"/>
<path d="M19.9011 13.1412C19.7572 12.962 19.5089 12.9487 19.3466 13.1114L13.6285 18.844L11.7463 16.2308C11.6035 16.0326 11.3406 16.0043 11.159 16.1676C10.9774 16.3309 10.9459 16.6239 11.0886 16.8221L13.2047 19.76C13.2911 19.88 13.4215 19.9377 13.5513 19.9284C13.6495 19.9318 13.7494 19.8943 13.8288 19.8147L19.8678 13.7603C20.0301 13.5976 20.045 13.3204 19.9011 13.1412Z" fill="#F5F5F5"/>
<path d="M7.05746 2.75H5.19986C4.3991 2.75 3.75 3.39922 3.75 4.2V20.8C3.75 21.6008 4.3991 22.25 5.19986 22.25H15.6186C16.4194 22.25 17.0685 21.6008 17.0685 20.8V16.9208L20.0448 13.9369C20.2971 13.6839 20.3197 13.2632 20.096 12.9847C19.8588 12.6893 19.4371 12.6666 19.1696 12.9348L17.0685 15.0412V4.2C17.0685 3.39922 16.4194 2.75 15.6186 2.75H13.2068C13.091 2.17946 12.5866 1.75 11.9819 1.75H8.28234C7.67763 1.75 7.17326 2.17946 7.05746 2.75Z" stroke="#F72F2F" stroke-width="0.5"/>
</svg>
