<svg width="22" height="18" viewBox="0 0 22 18" fill="none" xmlns="http://www.w3.org/2000/svg">
<path d="M18.5173 5.48671L18.5173 5.48675L18.5227 5.4824C18.7792 5.27715 18.9445 4.9792 18.9831 4.653C19.0216 4.32678 18.9301 3.99853 18.7285 3.73922C18.5269 3.4799 18.2313 3.31037 17.9056 3.26728C17.58 3.22419 17.2505 3.31101 16.9884 3.50896L16.9883 3.50892L16.9827 3.51329L11 8.16642L5.01967 3.51515C4.89107 3.41289 4.74357 3.33698 4.58559 3.29177C4.42635 3.24619 4.25964 3.23272 4.09515 3.25214C3.93066 3.27155 3.77167 3.32346 3.62741 3.40486C3.48316 3.48625 3.35652 3.5955 3.25485 3.72626C3.15318 3.85702 3.07852 4.00668 3.03519 4.16654C2.99186 4.32641 2.98074 4.49329 3.00247 4.65749C3.0242 4.82169 3.07834 4.97994 3.16175 5.12303L3.5748 4.88226L3.16175 5.12304C3.24449 5.26497 3.35439 5.38919 3.48515 5.4886L10.2327 10.7367L10.2328 10.7368C10.4522 10.9073 10.7221 10.9999 11 10.9999C11.2779 10.9999 11.5478 10.9073 11.7672 10.7368L11.7673 10.7367L18.5173 5.48671ZM3.12527 1.25H18.8747C19.4382 1.25067 19.9784 1.4748 20.3768 1.87322C20.7753 2.27171 20.9994 2.81199 21 3.37553V14.6245C20.9994 15.188 20.7753 15.7283 20.3768 16.1268C19.9783 16.5253 19.438 16.7494 18.8745 16.75H3.12553C2.56199 16.7494 2.02171 16.5253 1.62322 16.1268C1.2248 15.7284 1.00067 15.1882 1 14.6247V3.37527C1.00067 2.81182 1.2248 2.27164 1.62322 1.87322C2.02164 1.4748 2.56182 1.25067 3.12527 1.25Z" fill="#7E7E7E" stroke="#F72F2F"/>
</svg>
