<svg width="18" height="16" viewBox="0 0 18 16" fill="none" xmlns="http://www.w3.org/2000/svg">
<path d="M13.4091 5.86667V6.36667H13.9091H14.7269C15.516 6.36723 16.2489 6.57311 16.7674 6.91106C17.2864 7.2494 17.4994 7.65311 17.5 8.00084V13.8658C17.4994 14.2136 17.2864 14.6173 16.7674 14.9556C16.2489 15.2936 15.516 15.4994 14.7269 15.5H3.27308C2.48404 15.4994 1.75108 15.2936 1.23265 14.9556C0.713782 14.6174 0.500736 14.2139 0.5 13.8662V8.00046C0.500736 7.65281 0.713782 7.24928 1.23265 6.91106C1.75108 6.57311 2.48404 6.36723 3.27308 6.36667H4.09091H4.59091V5.86667V3.2C4.59091 2.5696 4.97579 1.89456 5.80179 1.35613C6.62718 0.81809 7.77677 0.5 9 0.5C10.2232 0.5 11.3728 0.81809 12.1982 1.35613C13.0242 1.89455 13.4091 2.5696 13.4091 3.2V5.86667ZM12.2727 6.36667H12.7727V5.86667V3.2C12.7727 2.41591 12.2956 1.7344 11.5872 1.27264C10.8782 0.81048 9.94673 0.566667 9 0.566667C8.05327 0.566667 7.12179 0.81048 6.41279 1.27264C5.7044 1.7344 5.22727 2.41591 5.22727 3.2V5.86667V6.36667H5.72727H12.2727Z" fill="#7E7E7E" stroke="#F72F2F"/>
</svg>
