<svg width="28" height="28" viewBox="0 0 28 28" fill="none" xmlns="http://www.w3.org/2000/svg">
<path d="M21.9103 27.1249C20.7665 27.1249 19.1599 26.7113 16.754 25.3671C13.8284 23.7265 11.5655 22.2119 8.65577 19.3097C5.8503 16.506 4.48507 14.6908 2.57432 11.2138C0.415731 7.28803 0.783699 5.23022 1.19503 4.35073C1.68487 3.29955 2.40792 2.67084 3.34249 2.04682C3.87332 1.69903 4.43507 1.40089 5.02061 1.15619C5.07921 1.131 5.1337 1.10698 5.18233 1.0853C5.47237 0.954632 5.91182 0.757171 6.46846 0.968109C6.83995 1.10756 7.17159 1.39291 7.69073 1.90561C8.75538 2.95561 10.2103 5.29409 10.747 6.44252C11.1073 7.21655 11.3458 7.72748 11.3464 8.30053C11.3464 8.97143 11.0089 9.48881 10.5993 10.0472C10.5226 10.1521 10.4464 10.2523 10.3726 10.3496C9.92667 10.9355 9.82882 11.1048 9.89327 11.4072C10.0239 12.0148 10.9983 13.8236 12.5997 15.4214C14.2011 17.0193 15.9577 17.9322 16.5677 18.0622C16.8829 18.1296 17.0558 18.0277 17.6605 17.566C17.7472 17.4997 17.8362 17.4312 17.9294 17.3626C18.554 16.898 19.0474 16.5693 19.7024 16.5693H19.706C20.2761 16.5693 20.7642 16.8165 21.5728 17.2244C22.6274 17.7564 25.0362 19.1925 26.0927 20.2583C26.6065 20.7763 26.8931 21.1068 27.0331 21.4777C27.244 22.0361 27.0454 22.4738 26.9159 22.7667C26.8942 22.8154 26.8702 22.8687 26.845 22.9279C26.5984 23.5124 26.2985 24.0729 25.9491 24.6025C25.3263 25.5341 24.6952 26.2554 23.6417 26.7458C23.1007 27.0017 22.5087 27.1314 21.9103 27.1249Z" fill="#F72F2F"/>
</svg>
