<svg width="32" height="32" viewBox="0 0 32 32" fill="none" xmlns="http://www.w3.org/2000/svg">
<path d="M22.9333 18.6666C23.3026 18.6666 23.4873 18.6666 23.637 18.7486C23.7604 18.8162 23.8754 18.9433 23.9303 19.0729C23.997 19.23 23.9802 19.3971 23.9467 19.7315C23.7728 21.4649 23.1762 23.1352 22.2023 24.5927C21.0302 26.3468 19.3643 27.7139 17.4153 28.5213C15.4662 29.3286 13.3215 29.5399 11.2523 29.1283C9.1832 28.7167 7.28259 27.7008 5.79083 26.209C4.29907 24.7173 3.28316 22.8167 2.87159 20.7475C2.46001 18.6784 2.67125 16.5337 3.47858 14.5846C4.28592 12.6355 5.65309 10.9696 7.40721 9.79756C8.86471 8.82369 10.535 8.22711 12.2684 8.05319C12.6027 8.01964 12.7699 8.00287 12.927 8.06952C13.0566 8.12451 13.1836 8.23943 13.2513 8.3629C13.3333 8.51257 13.3333 8.69724 13.3333 9.06657V17.5999C13.3333 17.9733 13.3333 18.16 13.406 18.3026C13.4699 18.428 13.5719 18.53 13.6973 18.5939C13.8399 18.6666 14.0266 18.6666 14.4 18.6666H22.9333Z" stroke="#7e7e7e" stroke-width="2" stroke-linecap="round" stroke-linejoin="round"/>
<path d="M18.6666 3.73324C18.6666 3.3639 18.6666 3.17923 18.7486 3.02956C18.8163 2.90609 18.9433 2.79117 19.0729 2.73618C19.23 2.66952 19.3972 2.68629 19.7316 2.71983C22.1694 2.96436 24.4613 4.04297 26.2091 5.79076C27.9569 7.53855 29.0355 9.83043 29.28 12.2683C29.3136 12.6027 29.3303 12.7698 29.2637 12.927C29.2087 13.0566 29.0938 13.1836 28.9703 13.2512C28.8206 13.3332 28.636 13.3332 28.2666 13.3332L19.7333 13.3332C19.3599 13.3332 19.1732 13.3332 19.0306 13.2606C18.9052 13.1967 18.8032 13.0947 18.7393 12.9692C18.6666 12.8266 18.6666 12.6399 18.6666 12.2666V3.73324Z" stroke="#7e7e7e" stroke-width="2" stroke-linecap="round" stroke-linejoin="round"/>
</svg>
