<svg width="24" height="24" viewBox="0 0 24 24" fill="none" xmlns="http://www.w3.org/2000/svg">
<path d="M23 7.79784C23 9.87644 21.7878 11.6463 20.0922 12.3127C19.6262 12.4959 19.1238 12.5957 18.6 12.5957C17.2343 12.5957 16.014 11.9172 15.2069 10.8526C15.0286 10.6173 14.8705 10.3632 14.7354 10.0934C14.394 9.41158 14.2 8.62942 14.2 7.79784C14.2 6.92394 14.4143 6.10462 14.7886 5.39892C15.5494 3.96484 16.9714 3 18.6 3C21.0301 3 23 5.14807 23 7.79784Z" fill="#FF753A"/>
<path d="M20.0922 18.6011V12.3127C19.6262 12.4959 19.1238 12.5957 18.6 12.5957C17.2343 12.5957 16.014 11.9172 15.2069 10.8526L11.9772 13.8688C11.1535 14.638 9.93867 14.638 9.11502 13.8688L1.3062 6.57627C1.11167 6.93407 1 7.35173 1 7.79784V18.6011C1 19.926 1.98497 21 3.2 21H17.8922C19.1072 21 20.0922 19.926 20.0922 18.6011Z" fill="#F72F2F"/>
<path d="M9.11502 12.6693C9.93867 13.4385 11.1535 13.4385 11.9772 12.6693L14.7354 10.0934C14.394 9.41158 14.2 8.62942 14.2 7.79784C14.2 6.92394 14.4143 6.10462 14.7886 5.39892H3.2C2.696 5.39892 2.23158 5.58372 1.86063 5.89458L9.11502 12.6693Z" fill="#F72F2F"/>
<path d="M3.72535 16.6915C3.70545 16.7332 3.65567 16.7519 3.6137 16.7324C3.52757 16.6925 3.42941 16.6684 3.33721 16.6689C3.19316 16.6697 3.08358 16.7217 3.08427 16.8415C3.08498 16.9674 3.22442 17.0087 3.38048 17.0548C3.57884 17.1135 3.80408 17.1801 3.80555 17.4387C3.807 17.6929 3.58302 17.8066 3.3364 17.8081C3.17772 17.809 3.01511 17.7622 2.89467 17.6738C2.8631 17.6506 2.85329 17.6077 2.87083 17.5727C2.89245 17.5295 2.94666 17.5152 2.98712 17.5415C3.0911 17.609 3.22173 17.6474 3.34279 17.6467C3.49418 17.6458 3.61594 17.5889 3.61765 17.4618C3.62017 17.3213 3.47426 17.2777 3.31372 17.2298C3.11946 17.1718 2.90376 17.1075 2.90367 16.8572C2.90226 16.6103 3.11408 16.5064 3.3485 16.5051C3.46954 16.5044 3.58774 16.531 3.68518 16.5778C3.72757 16.5981 3.74559 16.649 3.72535 16.6915Z" fill="#F5F5F5"/>
<path d="M5.06754 16.7526C5.03941 16.7891 4.98762 16.7978 4.94977 16.7716C4.86143 16.7105 4.75369 16.6754 4.62904 16.6761C4.3629 16.6776 4.17356 16.8718 4.17516 17.1529C4.17676 17.434 4.36833 17.6285 4.63447 17.627C4.77242 17.6262 4.89049 17.5862 4.97803 17.5124C5.01078 17.4847 5.05955 17.4881 5.08903 17.5192C5.11986 17.5517 5.11947 17.6038 5.08659 17.6343C4.9738 17.7385 4.81702 17.7995 4.62812 17.8006C4.25456 17.8027 3.98934 17.5378 3.98714 17.154C3.98495 16.7702 4.24959 16.5023 4.6207 16.5001C4.7921 16.4971 4.93881 16.5443 5.05114 16.6293C5.08991 16.6587 5.09728 16.7141 5.06754 16.7526Z" fill="#F5F5F5"/>
<path d="M3.89397 19.2582L3.88878 18.3491L3.85303 18.3493L3.71083 18.3501C3.59543 18.3508 3.48002 18.3515 3.36462 18.352C3.30686 18.3523 3.26727 18.3268 3.25323 18.2814C3.23441 18.2206 3.2737 18.1594 3.33734 18.1507C3.34516 18.1496 3.35314 18.1496 3.36107 18.1496L3.36346 18.1496L3.43781 18.1491L4.6165 18.1424C4.68003 18.1421 4.72158 18.1734 4.73041 18.2275C4.73899 18.2801 4.70613 18.3297 4.65405 18.3408C4.63906 18.344 4.62333 18.3447 4.6079 18.3448C4.48394 18.3457 4.35997 18.3464 4.236 18.3471L4.12821 18.3477L4.09282 18.3479L4.09801 19.257L4.12446 19.2568C4.14369 19.2566 4.1627 19.2565 4.1817 19.2566C4.24442 19.2569 4.28785 19.2965 4.28953 19.3543C4.29116 19.412 4.24996 19.4566 4.18745 19.4579C4.06052 19.4604 3.93354 19.4611 3.80661 19.46C3.74439 19.4595 3.70251 19.4147 3.70373 19.3573C3.70496 19.2995 3.74809 19.2598 3.81086 19.2587C3.82927 19.2584 3.84766 19.2583 3.86677 19.2583L3.89397 19.2582Z" fill="#F5F5F5"/>
<path d="M3.38811 18.8927L3.47536 19.3341C3.48807 19.398 3.45723 19.4502 3.39854 19.4632C3.34429 19.4753 3.29121 19.4385 3.27865 19.3769C3.24853 19.2288 3.21912 19.0805 3.19116 18.932C3.18581 18.9036 3.17731 18.8914 3.14552 18.8933C3.08978 18.8966 3.03377 18.8958 2.97786 18.895L2.96532 18.8948C2.94539 18.8946 2.93723 18.8996 2.93341 18.921C2.91587 19.0195 2.89749 19.1179 2.8791 19.2164L2.85059 19.3696C2.83768 19.4397 2.78699 19.4802 2.7277 19.4667C2.67079 19.4537 2.63913 19.4034 2.65026 19.3431L2.67285 19.2212C2.69711 19.0904 2.72137 18.9596 2.74509 18.8287C2.74686 18.8189 2.74485 18.8043 2.73856 18.7979C2.64302 18.7005 2.60231 18.5796 2.58393 18.4481C2.55725 18.2571 2.5296 18.0662 2.50163 17.8754C2.49202 17.8098 2.52567 17.7568 2.58523 17.7474C2.64239 17.7383 2.69208 17.7787 2.70142 17.8431C2.71705 17.9512 2.7325 18.0593 2.74795 18.1674L2.78769 18.4446C2.79634 18.5046 2.81359 18.5618 2.84665 18.6134C2.87998 18.6654 2.92594 18.6936 2.98909 18.693C3.13347 18.6917 3.27786 18.6907 3.42224 18.6907C3.50225 18.6907 3.55148 18.7665 3.51749 18.8355C3.49828 18.8744 3.46486 18.8905 3.42318 18.8925C3.41624 18.8928 3.4093 18.8928 3.40123 18.8927L3.38811 18.8927Z" fill="#F5F5F5"/>
<path d="M5.38102 18.5251C5.36542 18.6206 5.32097 18.7049 5.25377 18.7755C5.24092 18.789 5.23797 18.8005 5.24172 18.819C5.27077 18.9624 5.29885 19.1059 5.32693 19.2494L5.34091 19.3208C5.35429 19.3891 5.32263 19.442 5.26189 19.4533C5.20567 19.4638 5.15543 19.4232 5.14251 19.3576L5.11223 19.2044C5.09259 19.1053 5.07296 19.0062 5.0539 18.907C5.05051 18.8893 5.04479 18.8826 5.02625 18.883C4.96037 18.8843 4.89448 18.8846 4.82859 18.8842C4.8112 18.8841 4.80373 18.8885 4.80033 18.9074C4.77975 19.0221 4.75829 19.1365 4.73683 19.251L4.7177 19.3532C4.71627 19.3608 4.71484 19.3684 4.71297 19.376C4.69889 19.4325 4.64918 19.4671 4.59674 19.4568C4.54044 19.4459 4.50541 19.3939 4.51567 19.3351C4.52174 19.3003 4.52837 19.2656 4.535 19.2309L4.54504 19.1779L4.59906 18.8875L4.5841 18.8868C4.57688 18.8865 4.56999 18.8862 4.56324 18.8857C4.56018 18.8855 4.55714 18.8853 4.5541 18.8849C4.49553 18.879 4.45659 18.8364 4.45851 18.7808C4.46039 18.726 4.50329 18.6847 4.56162 18.6841L4.64522 18.6832C4.75496 18.6819 4.86472 18.6806 4.97441 18.6823C5.06897 18.6838 5.12538 18.649 5.15954 18.5546C5.18362 18.4881 5.19501 18.4161 5.20524 18.3456C5.22145 18.234 5.23589 18.1222 5.25034 18.0103C5.25824 17.9492 5.26614 17.888 5.27432 17.8269C5.28145 17.7736 5.31475 17.7384 5.36167 17.7315C5.40791 17.7246 5.44734 17.7492 5.47106 17.7994L5.47456 17.8037L5.47644 17.8056L5.47674 17.858L5.46792 17.9174C5.46147 17.9608 5.45502 18.0041 5.4489 18.0475C5.44179 18.0978 5.43498 18.1483 5.42816 18.1987C5.41344 18.3077 5.39872 18.4166 5.38102 18.5251Z" fill="#F5F5F5"/>
<path fill-rule="evenodd" clip-rule="evenodd" d="M5.42816 18.1987C5.43498 18.1483 5.44179 18.0978 5.4489 18.0475L5.42816 18.1987ZM4.56324 18.8857C4.56999 18.8862 4.57688 18.8865 4.5841 18.8868L4.56324 18.8857Z" fill="#F5F5F5"/>
</svg>
