<svg width="24" height="24" viewBox="0 0 24 24" fill="none" xmlns="http://www.w3.org/2000/svg">
<path fill-rule="evenodd" clip-rule="evenodd" d="M1.53162 7.15654C1.49575 7.19916 1.46141 7.24318 1.42869 7.2885C1.39392 7.33666 1.36099 7.38629 1.33 7.43728C1.32193 7.45055 1.314 7.46392 1.3062 7.47737C1.20883 7.64528 1.13222 7.82725 1.07998 8.01959C1.02786 8.21151 1 8.41374 1 8.62263V18.751C1 19.9931 1.98497 21 3.2 21H17.8922C19.1072 21 20.0922 19.9931 20.0922 18.7509V11.7309C21.7878 11.1061 23 9.44684 23 7.4981C23 5.01387 21.0301 3 18.6 3C16.5498 3 14.8271 4.43351 14.3386 6.37357H3.2C2.59226 6.37357 2.04207 6.6255 1.64392 7.03277C1.605 7.07257 1.56754 7.11386 1.53162 7.15654ZM19.8311 10.9904L19.3919 11.1523L18.9244 11.1945C18.8177 11.2041 18.7095 11.209 18.6 11.209C17.8886 11.209 17.2272 11.0006 16.6683 10.6407L16.2754 10.3876L15.9564 10.0413C15.3441 9.37635 14.97 8.48274 14.97 7.4981V7.02383L15.0843 6.56978C15.4873 4.96906 16.9096 3.78717 18.6 3.78717C20.6048 3.78717 22.23 5.44861 22.23 7.4981C22.23 9.10458 21.2311 10.4745 19.8311 10.9904ZM2.1 18.751V8.91266L8.75725 14.7413C9.78682 15.6428 11.3054 15.6428 12.3349 14.7413L16.2578 11.3067C16.8358 11.6789 17.5044 11.9174 18.2222 11.9798C18.3467 11.9907 18.4727 11.9962 18.6 11.9962C18.7322 11.9962 18.863 11.9902 18.9922 11.9786V18.7509C18.9922 19.372 18.4997 19.8755 17.8922 19.8755H3.2C2.59249 19.8755 2.1 19.372 2.1 18.751ZM2.48423 7.76849L9.47279 13.8872C10.0905 14.4281 11.0016 14.4281 11.6194 13.8872L15.3958 10.5808C15.3007 10.4776 15.2104 10.3698 15.1251 10.2577C14.5453 9.49582 14.2 8.53818 14.2 7.4981H3.2C2.92732 7.4981 2.67722 7.59923 2.48423 7.76849Z" fill="#F5F5F5"/>
<path d="M4.23892 16.2097C4.21902 16.2515 4.16924 16.2701 4.12727 16.2506C4.04113 16.2107 3.94298 16.1866 3.85078 16.1871C3.70672 16.188 3.59715 16.2399 3.59783 16.3597C3.59855 16.4857 3.73798 16.5269 3.89405 16.5731C4.09241 16.6317 4.31764 16.6984 4.31912 16.9569C4.32057 17.2112 4.09659 17.3249 3.84996 17.3263C3.69129 17.3272 3.52868 17.2804 3.40823 17.192C3.37666 17.1689 3.36686 17.126 3.38439 17.091C3.40602 17.0478 3.46022 17.0334 3.50069 17.0597C3.60466 17.1273 3.7353 17.1656 3.85636 17.1649C4.00775 17.164 4.12951 17.1071 4.13122 16.98C4.13373 16.8395 3.98783 16.796 3.82729 16.748C3.63302 16.6901 3.41732 16.6257 3.41724 16.3754C3.41583 16.1285 3.62765 16.0246 3.86207 16.0233C3.9831 16.0226 4.10131 16.0492 4.19874 16.096C4.24114 16.1164 4.25916 16.1672 4.23892 16.2097Z" fill="#F5F5F5"/>
<path d="M5.5811 16.2709C5.55297 16.3073 5.50119 16.316 5.46334 16.2899C5.375 16.2288 5.26725 16.1936 5.14261 16.1943C4.87647 16.1958 4.68712 16.39 4.68873 16.6712C4.69033 16.9523 4.88189 17.1467 5.14804 17.1452C5.28599 17.1444 5.40406 17.1044 5.4916 17.0306C5.52435 17.003 5.57312 17.0063 5.6026 17.0375C5.63343 17.07 5.63304 17.1221 5.60015 17.1525C5.48737 17.2567 5.33059 17.3177 5.14169 17.3188C4.76813 17.3209 4.5029 17.056 4.50071 16.6722C4.49852 16.2884 4.76315 16.0205 5.13427 16.0184C5.30567 16.0154 5.45238 16.0625 5.56471 16.1476C5.60348 16.1769 5.61084 16.2324 5.5811 16.2709Z" fill="#F5F5F5"/>
<path d="M4.40753 18.7764L4.40235 17.8673L4.3666 17.8675L4.2244 17.8684C4.109 17.8691 3.99359 17.8698 3.87818 17.8703C3.82043 17.8705 3.78084 17.845 3.7668 17.7996C3.74797 17.7388 3.78727 17.6776 3.8509 17.6689C3.85872 17.6679 3.86671 17.6678 3.87464 17.6678L3.87703 17.6678L3.95138 17.6674L5.13007 17.6606C5.19359 17.6603 5.23515 17.6916 5.24398 17.7457C5.25255 17.7984 5.2197 17.8479 5.16761 17.8591C5.15262 17.8623 5.1369 17.8629 5.12147 17.8631C4.9975 17.864 4.87354 17.8647 4.74957 17.8653L4.64178 17.866L4.60639 17.8662L4.61158 18.7752L4.63802 18.775C4.65726 18.7749 4.67626 18.7747 4.69527 18.7748C4.75798 18.7752 4.80142 18.8147 4.80309 18.8725C4.80472 18.9302 4.76353 18.9748 4.70102 18.9761C4.57409 18.9786 4.44711 18.9794 4.32017 18.9782C4.25795 18.9777 4.21608 18.933 4.2173 18.8755C4.21852 18.8178 4.26165 18.778 4.32443 18.7769C4.34284 18.7766 4.36123 18.7766 4.38034 18.7765L4.40753 18.7764Z" fill="#F5F5F5"/>
<path d="M3.90168 18.4109L3.98893 18.8523C4.00163 18.9163 3.97079 18.9684 3.91211 18.9815C3.85786 18.9936 3.80477 18.9567 3.79222 18.8951C3.76209 18.747 3.73269 18.5988 3.70473 18.4502C3.69937 18.4219 3.69087 18.4097 3.65909 18.4115C3.60335 18.4148 3.54734 18.414 3.49142 18.4132L3.47889 18.4131C3.45896 18.4128 3.45079 18.4178 3.44698 18.4392C3.42944 18.5378 3.41106 18.6362 3.39267 18.7346L3.36416 18.8879C3.35125 18.9579 3.30056 18.9984 3.24127 18.9849C3.18436 18.9719 3.15269 18.9216 3.16383 18.8613L3.18641 18.7395C3.21067 18.6086 3.23494 18.4778 3.25865 18.3469C3.26043 18.3371 3.25842 18.3225 3.25213 18.3161C3.15659 18.2188 3.11587 18.0979 3.0975 17.9663C3.07082 17.7753 3.04317 17.5844 3.01519 17.3936C3.00558 17.328 3.03924 17.275 3.0988 17.2656C3.15595 17.2566 3.20565 17.2969 3.21499 17.3613C3.23061 17.4694 3.24606 17.5775 3.26152 17.6856L3.30126 17.9628C3.30991 18.0229 3.32715 18.08 3.36022 18.1316C3.39355 18.1837 3.43951 18.2119 3.50265 18.2113C3.64704 18.2099 3.79142 18.2089 3.93581 18.2089C4.01581 18.2089 4.06505 18.2847 4.03106 18.3537C4.01185 18.3926 3.97843 18.4087 3.93674 18.4107C3.92981 18.411 3.92287 18.411 3.9148 18.411L3.90168 18.4109Z" fill="#F5F5F5"/>
<path d="M5.89458 18.0434C5.87899 18.1389 5.83454 18.2231 5.76734 18.2937C5.75449 18.3072 5.75154 18.3187 5.75529 18.3373C5.78433 18.4806 5.81241 18.6241 5.8405 18.7676L5.85448 18.8391C5.86785 18.9074 5.8362 18.9602 5.77546 18.9716C5.71924 18.9821 5.66899 18.9415 5.65608 18.8758L5.6258 18.7226C5.60616 18.6235 5.58653 18.5245 5.56747 18.4253C5.56407 18.4075 5.55836 18.4009 5.53981 18.4012C5.47394 18.4026 5.40805 18.4028 5.34215 18.4024C5.32477 18.4023 5.3173 18.4067 5.3139 18.4257C5.29332 18.5403 5.27186 18.6548 5.2504 18.7692L5.23127 18.8714C5.22983 18.879 5.22841 18.8867 5.22654 18.8942C5.21246 18.9508 5.16275 18.9853 5.11031 18.9751C5.05401 18.9641 5.01898 18.9122 5.02924 18.8533C5.03531 18.8185 5.04194 18.7838 5.04856 18.7491L5.05861 18.6962L5.11263 18.4057L5.09766 18.405C5.09044 18.4047 5.08356 18.4044 5.07681 18.404C5.07374 18.4037 5.0707 18.4035 5.06767 18.4032C5.0091 18.3973 4.97015 18.3546 4.97207 18.299C4.97396 18.2443 5.01686 18.203 5.07519 18.2024L5.15878 18.2014C5.26853 18.2001 5.37828 18.1988 5.48798 18.2005C5.58254 18.202 5.63895 18.1672 5.6731 18.0728C5.69718 18.0063 5.70857 17.9344 5.71881 17.8638C5.73501 17.7522 5.74946 17.6404 5.76391 17.5285C5.7718 17.4674 5.7797 17.4062 5.78789 17.3451C5.79501 17.2918 5.82831 17.2566 5.87524 17.2497C5.92148 17.2428 5.96091 17.2674 5.98463 17.3176L5.98813 17.3219L5.99 17.3239L5.9903 17.3763L5.98149 17.4357C5.97504 17.479 5.96859 17.5223 5.96246 17.5657C5.95536 17.6161 5.94854 17.6665 5.94173 17.7169C5.92701 17.8259 5.91228 17.9349 5.89458 18.0434Z" fill="#F5F5F5"/>
<path fill-rule="evenodd" clip-rule="evenodd" d="M5.94173 17.7169C5.94854 17.6665 5.95536 17.6161 5.96246 17.5657ZM5.07681 18.404C5.08356 18.4044 5.09044 18.4047 5.09766 18.405Z" fill="#F5F5F5"/>
</svg>
