<svg width="32" height="32" viewBox="0 0 32 32" fill="none" xmlns="http://www.w3.org/2000/svg">
<path fill-rule="evenodd" clip-rule="evenodd" d="M2.04221 9.54205C1.99437 9.59889 1.94858 9.65758 1.90496 9.718C1.85861 9.78222 1.8147 9.84839 1.77337 9.91638C1.76262 9.93407 1.75204 9.95189 1.74164 9.96983C1.61181 10.1937 1.50966 10.4363 1.44001 10.6928C1.37052 10.9487 1.33337 11.2183 1.33337 11.4968V25.0013C1.33337 26.6574 2.64667 28 4.26671 28H23.8563C25.4763 28 26.7896 26.6574 26.7896 25.0013V15.6413C29.0504 14.8082 30.6667 12.5958 30.6667 9.99747C30.6667 6.68516 28.0401 4 24.8 4C22.0664 4 19.7695 5.91135 19.1182 8.4981H4.26671C3.45639 8.4981 2.7228 8.834 2.19193 9.37702C2.14005 9.43009 2.0901 9.48514 2.04221 9.54205ZM26.4415 14.6539L25.8558 14.8697L25.2326 14.9259C25.0903 14.9388 24.9461 14.9454 24.8 14.9454C23.8516 14.9454 22.9697 14.6675 22.2244 14.1875L21.7006 13.8502L21.2753 13.3883C20.4588 12.5018 19.96 11.3103 19.96 9.99747V9.36511L20.1125 8.75971C20.6498 6.62542 22.5462 5.04956 24.8 5.04956C27.4731 5.04956 29.64 7.26481 29.64 9.99747C29.64 12.1394 28.3081 13.9661 26.4415 14.6539ZM2.80004 25.0013V11.8835L11.6764 19.6551C13.0491 20.857 15.0738 20.857 16.4466 19.6551L21.6772 15.0756C22.4478 15.5719 23.3393 15.8899 24.2963 15.9731C24.4623 15.9876 24.6303 15.9949 24.8 15.9949C24.9763 15.9949 25.1507 15.987 25.3229 15.9714V25.0013C25.3229 25.8293 24.6663 26.5006 23.8563 26.5006H4.26671C3.45669 26.5006 2.80004 25.8293 2.80004 25.0013ZM3.31234 10.358L12.6304 18.5163C13.4541 19.2375 14.6689 19.2375 15.4926 18.5163L20.5278 14.1078C20.401 13.9701 20.2806 13.8264 20.1669 13.677C19.3938 12.6611 18.9334 11.3842 18.9334 9.99747H4.26671C3.90314 9.99747 3.56966 10.1323 3.31234 10.358Z" fill="#F5F5F5"/>
<path d="M5.65193 21.6129C5.62539 21.6686 5.55903 21.6935 5.50307 21.6675C5.38822 21.6143 5.25734 21.5821 5.13442 21.5829C4.94234 21.584 4.79624 21.6532 4.79715 21.813C4.79811 21.9809 4.98402 22.0359 5.19211 22.0974C5.45659 22.1757 5.7569 22.2645 5.75887 22.6092C5.7608 22.9482 5.46216 23.0998 5.13332 23.1017C4.92176 23.1029 4.70495 23.0406 4.54435 22.9227C4.50226 22.8918 4.48919 22.8346 4.51257 22.7879C4.5414 22.7304 4.61367 22.7112 4.66762 22.7463C4.80626 22.8363 4.98044 22.8875 5.14186 22.8866C5.34371 22.8854 5.50605 22.8095 5.50833 22.64C5.51169 22.4527 5.31715 22.3946 5.1031 22.3307C4.84407 22.2534 4.55647 22.1676 4.55636 21.8339C4.55448 21.5047 4.83691 21.3662 5.14946 21.3644C5.31084 21.3635 5.46845 21.3989 5.59836 21.4613C5.65489 21.4885 5.67892 21.5563 5.65193 21.6129Z" fill="#F5F5F5"/>
<path d="M7.44151 21.6945C7.404 21.7431 7.33496 21.7547 7.28449 21.7198C7.16671 21.6384 7.02304 21.5915 6.85685 21.5924C6.502 21.5945 6.24954 21.8534 6.25168 22.2282C6.25382 22.603 6.50923 22.8623 6.86409 22.8603C7.04803 22.8592 7.20546 22.8059 7.32217 22.7075C7.36584 22.6706 7.43087 22.6751 7.47017 22.7166C7.51127 22.76 7.51076 22.8294 7.46691 22.87C7.31653 23.009 7.10749 23.0903 6.85563 23.0917C6.35754 23.0946 6.00391 22.7413 6.00099 22.2297C5.99807 21.7179 6.35091 21.3606 6.84573 21.3578C7.07426 21.3538 7.26988 21.4167 7.41965 21.5301C7.47135 21.5692 7.48117 21.6432 7.44151 21.6945Z" fill="#F5F5F5"/>
<path d="M5.87675 25.0352L5.86983 23.8231L5.82218 23.8234L5.63257 23.8245C5.4787 23.8254 5.32483 23.8263 5.17095 23.827C5.09395 23.8273 5.04115 23.7933 5.02244 23.7329C4.99734 23.6518 5.04973 23.5701 5.13458 23.5586C5.14501 23.5572 5.15566 23.5571 5.16623 23.5571L5.16941 23.5571L5.26854 23.5565L6.84013 23.5475C6.92483 23.5471 6.98024 23.5888 6.99201 23.6609C7.00345 23.7311 6.95964 23.7972 6.89019 23.8121C6.8702 23.8163 6.84924 23.8173 6.82867 23.8174C6.66338 23.8186 6.49809 23.8195 6.3328 23.8205L6.18907 23.8213L6.14189 23.8215L6.14881 25.0337L6.18407 25.0334C6.20972 25.0332 6.23506 25.0329 6.2604 25.0331C6.34402 25.0336 6.40194 25.0863 6.40416 25.1634C6.40634 25.2403 6.35141 25.2998 6.26806 25.3015C6.09882 25.3048 5.92952 25.3058 5.76027 25.3043C5.67731 25.3036 5.62148 25.244 5.62311 25.1673C5.62474 25.0904 5.68225 25.0373 5.76595 25.0359C5.79049 25.0355 5.81501 25.0354 5.84049 25.0354L5.87675 25.0352Z" fill="#F5F5F5"/>
<path d="M5.20228 24.5479L5.31862 25.1364C5.33555 25.2217 5.29443 25.2912 5.21619 25.3086C5.14385 25.3248 5.07307 25.2756 5.05633 25.1935C5.01617 24.996 4.97696 24.7983 4.93968 24.6003C4.93254 24.5625 4.92121 24.5462 4.87882 24.5487C4.80451 24.5531 4.72982 24.552 4.65527 24.551L4.63856 24.5507C4.61199 24.5504 4.6011 24.5571 4.59601 24.5856C4.57263 24.717 4.54811 24.8482 4.5236 24.9795L4.48558 25.1838C4.46837 25.2772 4.40078 25.3312 4.32173 25.3132C4.24586 25.2959 4.20363 25.2288 4.21848 25.1484L4.24859 24.9859C4.28094 24.8115 4.31329 24.6371 4.34491 24.4625C4.34727 24.4495 4.3446 24.43 4.33621 24.4215C4.20882 24.2917 4.15454 24.1305 4.13004 23.9551C4.09447 23.7004 4.0576 23.4459 4.0203 23.1915C4.00748 23.104 4.05236 23.0333 4.13177 23.0208C4.20798 23.0088 4.27424 23.0625 4.28669 23.1484C4.30753 23.2925 4.32813 23.4367 4.34873 23.5808L4.40172 23.9505C4.41326 24.0305 4.43624 24.1067 4.48033 24.1755C4.52477 24.2449 4.58605 24.2825 4.67025 24.2817C4.86276 24.2799 5.05527 24.2785 5.24778 24.2785C5.35446 24.2785 5.4201 24.3797 5.37478 24.4716C5.34917 24.5235 5.30461 24.545 5.24903 24.5476C5.23979 24.548 5.23053 24.548 5.21977 24.5479L5.20228 24.5479Z" fill="#F5F5F5"/>
<path d="M7.85949 24.0578C7.8387 24.1851 7.77943 24.2975 7.68983 24.3916C7.67269 24.4096 7.66876 24.425 7.67376 24.4497C7.71249 24.6408 7.74993 24.8321 7.78737 25.0235L7.80601 25.1187C7.82385 25.2098 7.78164 25.2803 7.70065 25.2954C7.6257 25.3094 7.5587 25.2553 7.54148 25.1678L7.5011 24.9635C7.47492 24.8314 7.44874 24.6993 7.42334 24.567C7.41881 24.5433 7.41119 24.5345 7.38646 24.535C7.29863 24.5368 7.21077 24.5371 7.12291 24.5366C7.09974 24.5364 7.08978 24.5423 7.08524 24.5676C7.05779 24.7204 7.02918 24.873 7.00057 25.0257L6.97506 25.1619C6.97315 25.1721 6.97125 25.1822 6.96875 25.1923C6.94999 25.2677 6.88371 25.3138 6.81379 25.3001C6.73872 25.2854 6.69201 25.2162 6.70569 25.1377C6.71379 25.0914 6.72262 25.0451 6.73146 24.9989L6.74485 24.9282L6.81688 24.541L6.79692 24.54C6.7873 24.5396 6.77812 24.5392 6.76912 24.5386C6.76503 24.5383 6.76098 24.538 6.75693 24.5376C6.67884 24.5297 6.62691 24.4728 6.62947 24.3987C6.63198 24.3257 6.68918 24.2706 6.76696 24.2698L6.87842 24.2686C7.02474 24.2668 7.17109 24.2651 7.31735 24.2674C7.44343 24.2693 7.51864 24.2229 7.56418 24.0971C7.59629 24.0084 7.61147 23.9125 7.62512 23.8184C7.64673 23.6696 7.66599 23.5205 7.68525 23.3714C7.69578 23.2898 7.70631 23.2083 7.71723 23.1268C7.72673 23.0558 7.77113 23.0089 7.83369 22.9996C7.89535 22.9904 7.94792 23.0232 7.97955 23.0901L7.98421 23.0959L7.98671 23.0985L7.98711 23.1683L7.97536 23.2475C7.96676 23.3053 7.95816 23.3631 7.94999 23.4209C7.94052 23.4881 7.93143 23.5553 7.92235 23.6225C7.90272 23.7679 7.88308 23.9132 7.85949 24.0578Z" fill="#F5F5F5"/>
<path fill-rule="evenodd" clip-rule="evenodd" d="M7.92235 23.6225C7.93143 23.5553 7.94052 23.4881 7.94999 23.4209L7.92235 23.6225ZM6.76912 24.5386C6.77812 24.5392 6.7873 24.5396 6.79692 24.54L6.76912 24.5386Z" fill="#F5F5F5"/>
</svg>
