<svg width="32" height="32" viewBox="0 0 32 32" fill="none" xmlns="http://www.w3.org/2000/svg">
<path d="M16.3932 12.0194C15.5725 11.9383 14.7468 12.1129 14.0291 12.5193C13.3115 12.9256 12.737 13.5438 12.3843 14.2893C12.0316 15.0348 11.9179 15.871 12.0589 16.6836C12.1998 17.4962 12.5885 18.2453 13.1716 18.8284C13.7547 19.4116 14.5039 19.8002 15.3164 19.9412C16.129 20.0821 16.9653 19.9684 17.7107 19.6157C18.4562 19.263 19.0744 18.6885 19.4808 17.9709C19.8871 17.2533 20.0617 16.4276 19.9807 15.6069C19.8883 14.6869 19.4806 13.8271 18.8268 13.1733C18.1729 12.5194 17.3132 12.1118 16.3932 12.0194ZM26.0244 16C26.0219 16.4348 25.9899 16.8689 25.9288 17.2994L28.7544 19.5156C28.8775 19.6176 28.9604 19.7599 28.9884 19.9173C29.0164 20.0746 28.9878 20.2368 28.9075 20.375L26.2344 25C26.1532 25.1369 26.0263 25.2407 25.8761 25.2932C25.7259 25.3457 25.5619 25.3434 25.4132 25.2869L22.6069 24.1569C22.4522 24.0953 22.2845 24.073 22.1191 24.0921C21.9536 24.1112 21.7954 24.171 21.6588 24.2663C21.2305 24.5612 20.7805 24.8232 20.3125 25.05C20.1654 25.1215 20.0382 25.2281 19.942 25.3605C19.8459 25.4928 19.7838 25.6467 19.7613 25.8088L19.3407 28.8019C19.313 28.9599 19.2314 29.1035 19.1096 29.2081C18.9879 29.3126 18.8336 29.3716 18.6732 29.375H13.3269C13.1691 29.3723 13.017 29.3159 12.8955 29.2151C12.7741 29.1143 12.6906 28.9752 12.6588 28.8206L12.2388 25.8319C12.2152 25.6681 12.1515 25.5127 12.0534 25.3794C11.9552 25.2462 11.8257 25.1392 11.6763 25.0681C11.2089 24.8425 10.7604 24.5798 10.335 24.2825C10.1988 24.1877 10.0412 24.1284 9.87636 24.1097C9.71149 24.091 9.54458 24.1137 9.39066 24.1756L6.58503 25.305C6.43635 25.3616 6.27246 25.364 6.12223 25.3116C5.97199 25.2592 5.84506 25.1555 5.76378 25.0187L3.09066 20.3937C3.01029 20.2556 2.98157 20.0934 3.00961 19.936C3.03765 19.7786 3.12064 19.6363 3.24378 19.5344L5.63191 17.6594C5.76274 17.5555 5.86557 17.4206 5.93106 17.267C5.99654 17.1133 6.02262 16.9457 6.00691 16.7794C5.98441 16.5188 5.97066 16.2588 5.97066 15.9981C5.97066 15.7375 5.98378 15.4812 6.00691 15.2262C6.0209 15.061 5.99355 14.8948 5.92732 14.7427C5.8611 14.5906 5.75807 14.4574 5.62753 14.355L3.24066 12.48C3.11951 12.3776 3.03828 12.2357 3.01119 12.0794C2.98411 11.9231 3.01291 11.7622 3.09253 11.625L5.76566 7C5.84684 6.86312 5.97373 6.75929 6.12397 6.7068C6.27421 6.65432 6.43816 6.65656 6.58691 6.71313L9.39316 7.84312C9.54791 7.90474 9.71553 7.927 9.881 7.90791C10.0465 7.88883 10.2046 7.82898 10.3413 7.73375C10.7696 7.43883 11.2196 7.17682 11.6875 6.95C11.8346 6.8785 11.9619 6.77188 12.058 6.63955C12.1542 6.50722 12.2162 6.35326 12.2388 6.19125L12.6594 3.19812C12.687 3.04005 12.7687 2.89648 12.8905 2.79194C13.0122 2.68741 13.1665 2.6284 13.3269 2.625H18.6732C18.8309 2.62773 18.9831 2.68413 19.1045 2.7849C19.226 2.88567 19.3095 3.0248 19.3413 3.17937L19.7613 6.16813C19.7849 6.33192 19.8486 6.48734 19.9467 6.62059C20.0448 6.75383 20.1744 6.86076 20.3238 6.93188C20.7912 7.15747 21.2397 7.42019 21.665 7.7175C21.8012 7.81226 21.9589 7.87164 22.1237 7.8903C22.2886 7.90896 22.4555 7.8863 22.6094 7.82438L25.415 6.695C25.5637 6.63838 25.7276 6.63605 25.8778 6.68841C26.0281 6.74078 26.155 6.84448 26.2363 6.98125L28.9094 11.6062C28.9898 11.7444 29.0185 11.9066 28.9905 12.064C28.9624 12.2214 28.8794 12.3637 28.7563 12.4656L26.3682 14.3406C26.2368 14.4441 26.1333 14.5789 26.0673 14.7326C26.0012 14.8863 25.9747 15.054 25.99 15.2206C26.0107 15.4794 26.0244 15.7394 26.0244 16Z" stroke="#F5F5F5" stroke-width="2" stroke-linecap="round" stroke-linejoin="round"/>
</svg>
