<svg width="30" height="30" viewBox="0 0 30 30" fill="none" xmlns="http://www.w3.org/2000/svg">
<mask id="path-1-inside-1_1408_4762" fill="white">
<path d="M10.7501 21C9.51258 21 8.51133 21.9 8.51133 23C8.51133 24.1 9.51258 25 10.7501 25C11.9876 25 13.0001 24.1 13.0001 23C13.0001 21.9 11.9876 21 10.7501 21ZM4.00008 5V7H6.25008L10.3001 14.59L8.78133 17.04C8.60133 17.32 8.50008 17.65 8.50008 18C8.50008 19.1 9.51258 20 10.7501 20H24.2501V18H11.2226C11.0651 18 10.9413 17.89 10.9413 17.75L10.9751 17.63L11.9876 16H20.3688C21.2126 16 21.9551 15.59 22.3376 14.97L26.3651 8.48C26.4551 8.34 26.5001 8.17 26.5001 8C26.5001 7.45 25.9938 7 25.3751 7H8.73633L7.67883 5H4.00008ZM22.0001 21C20.7626 21 19.7613 21.9 19.7613 23C19.7613 24.1 20.7626 25 22.0001 25C23.2376 25 24.2501 24.1 24.2501 23C24.2501 21.9 23.2376 21 22.0001 21Z"/>
</mask>
<path d="M10.7501 21C9.51258 21 8.51133 21.9 8.51133 23C8.51133 24.1 9.51258 25 10.7501 25C11.9876 25 13.0001 24.1 13.0001 23C13.0001 21.9 11.9876 21 10.7501 21ZM4.00008 5V7H6.25008L10.3001 14.59L8.78133 17.04C8.60133 17.32 8.50008 17.65 8.50008 18C8.50008 19.1 9.51258 20 10.7501 20H24.2501V18H11.2226C11.0651 18 10.9413 17.89 10.9413 17.75L10.9751 17.63L11.9876 16H20.3688C21.2126 16 21.9551 15.59 22.3376 14.97L26.3651 8.48C26.4551 8.34 26.5001 8.17 26.5001 8C26.5001 7.45 25.9938 7 25.3751 7H8.73633L7.67883 5H4.00008ZM22.0001 21C20.7626 21 19.7613 21.9 19.7613 23C19.7613 24.1 20.7626 25 22.0001 25C23.2376 25 24.2501 24.1 24.2501 23C24.2501 21.9 23.2376 21 22.0001 21Z" fill="#F72F2F" stroke="#F72F2F" stroke-width="2.25" mask="url(#path-1-inside-1_1408_4762)"/>
</svg>
