<svg width="30" height="30" viewBox="0 0 30 30" fill="none" xmlns="http://www.w3.org/2000/svg">
<path d="M11.2226 18.5625H23.6876V19.4375H10.7501C9.75912 19.4375 9.06258 18.7289 9.06258 18C9.06258 17.7599 9.13172 17.5352 9.25449 17.3442L9.25455 17.3442L9.25942 17.3364L10.7782 14.8864L10.9489 14.611L10.7963 14.3252L6.74635 6.73519L6.5875 6.4375H6.25008H4.56258V5.5625H7.33996L8.23906 7.26293L8.39746 7.5625H8.73633H25.3751C25.7473 7.5625 25.9376 7.82111 25.9376 8C25.9376 8.07459 25.9172 8.13649 25.8919 8.17582L25.8919 8.17579L25.8871 8.1834L21.8596 14.6734L21.8589 14.6747C21.588 15.1137 21.0356 15.4375 20.3688 15.4375H11.9876H11.6748L11.5098 15.7032L10.4973 17.3332L10.4552 17.4009L10.4336 17.4777L10.3998 17.5977L10.3788 17.6724V17.75C10.3788 18.2611 10.8185 18.5625 11.2226 18.5625ZM9.07383 23C9.07383 22.2677 9.76297 21.5625 10.7501 21.5625C11.741 21.5625 12.4376 22.2711 12.4376 23C12.4376 23.7289 11.741 24.4375 10.7501 24.4375C9.76297 24.4375 9.07383 23.7323 9.07383 23ZM20.3238 23C20.3238 22.2677 21.013 21.5625 22.0001 21.5625C22.991 21.5625 23.6876 22.2711 23.6876 23C23.6876 23.7289 22.991 24.4375 22.0001 24.4375C21.013 24.4375 20.3238 23.7323 20.3238 23Z" fill="#F72F2F" stroke="#F72F2F" stroke-width="1.125"/>
</svg>
