<svg width="24" height="28" viewBox="0 0 24 28" fill="none" xmlns="http://www.w3.org/2000/svg">
<path d="M23.6973 25.6173L21.9483 8.94884C21.863 8.13037 21.1624 7.48919 20.3533 7.48919H17.1623V5.30439C17.1623 2.51739 14.896 0.25 12.1104 0.25C9.32377 0.25 7.05752 2.51739 7.05752 5.30439V7.48919H4.1068C3.29774 7.48919 2.59693 8.13022 2.51131 8.94839L0.762176 25.6174C0.702216 26.1902 0.865606 26.7382 1.2104 27.1212C1.50082 27.4438 1.89433 27.6215 2.31854 27.6215H22.1409C22.5652 27.6215 22.9588 27.4438 23.2492 27.1212C23.5939 26.7383 23.7573 26.1902 23.6973 25.6173ZM15.9638 7.49246H8.25595V5.30439C8.25595 3.1785 9.98464 1.44898 12.1104 1.44898C14.2352 1.44898 15.9639 3.1785 15.9639 5.30439L15.9638 7.49246Z" fill="#F72F2F"/>
<path d="M15.3134 15.7978C16.1718 14.7285 16.7841 13.2871 17.0859 11.6259C17.1562 11.2421 16.9013 10.8759 16.5205 10.8085C16.1367 10.7382 15.7734 10.9931 15.7031 11.374C15.4482 12.7832 14.9208 14.04 14.2177 14.916C13.7548 15.4931 12.996 16.1787 11.9999 16.1787C11.0039 16.1787 10.2451 15.4902 9.78218 14.916C9.07905 14.0429 8.55171 12.7832 8.29682 11.374C8.22651 10.9931 7.8603 10.7382 7.47944 10.8085C7.09858 10.8789 6.8437 11.2451 6.91401 11.6259C7.21284 13.2841 7.82807 14.7285 8.68647 15.7978C9.13178 16.3515 9.63276 16.788 10.1718 17.0898C10.7548 17.415 11.3701 17.582 11.9999 17.582C12.6298 17.582 13.2451 17.4179 13.8281 17.0898C14.3671 16.788 14.8681 16.3544 15.3134 15.7978Z" fill="#F5F5F5"/>
<path d="M5.24829 20.189C5.2083 20.2728 5.10829 20.3102 5.02397 20.2711C4.85091 20.1911 4.6537 20.1426 4.46846 20.1437C4.17904 20.1454 3.95889 20.2496 3.96026 20.4901C3.96354 21.064 5.40412 20.7614 5.40942 21.6886C5.41233 22.1988 4.96232 22.427 4.46682 22.4298C4.14802 22.4316 3.82132 22.3378 3.57933 22.1604C3.5159 22.1139 3.49621 22.0278 3.53143 21.9575C3.57488 21.8709 3.68378 21.842 3.76508 21.8948C3.97398 22.0304 4.23644 22.1074 4.47968 22.106C4.78383 22.1042 5.02846 21.99 5.0319 21.7348C5.04307 21.1118 3.59773 21.4389 3.59743 20.5215C3.59459 20.0261 4.02017 19.8176 4.49114 19.8149C4.73432 19.8135 4.97181 19.8669 5.16757 19.9608C5.25274 20.0016 5.28895 20.1037 5.24829 20.189Z" fill="#F5F5F5"/>
<path d="M7.94491 20.3118C7.88839 20.3849 7.78435 20.4024 7.70831 20.3499C7.53083 20.2273 7.31434 20.1567 7.06392 20.1581C6.5292 20.1612 6.14879 20.5509 6.15201 21.1151C6.15523 21.6792 6.54011 22.0694 7.07482 22.0664C7.35199 22.0648 7.58921 21.9845 7.76508 21.8364C7.83088 21.7809 7.92887 21.7877 7.9881 21.8502C8.05003 21.9154 8.04926 22.02 7.98319 22.081C7.75658 22.2902 7.44159 22.4126 7.06207 22.4148C6.31153 22.4191 5.77866 21.8874 5.77426 21.1172C5.76986 20.347 6.30154 19.8093 7.04715 19.805C7.39152 19.799 7.68629 19.8937 7.91197 20.0643C7.98987 20.1232 8.00466 20.2345 7.94491 20.3118Z" fill="#F5F5F5"/>
<path d="M8.76705 22.5301C8.74836 22.6569 8.72904 22.7835 8.71112 22.9103C8.66597 23.2299 8.62674 23.5504 8.57474 23.8689C8.54341 24.0606 8.4541 24.2296 8.31909 24.3713C8.29326 24.3984 8.28734 24.4216 8.29488 24.4587C8.36291 24.7941 8.42831 25.1299 8.49415 25.4657C8.52103 25.6028 8.45744 25.7089 8.3354 25.7317C8.22245 25.7528 8.12149 25.6713 8.09554 25.5396C8.03622 25.2381 7.97554 24.937 7.91752 24.6354C7.9107 24.5997 7.89921 24.5863 7.86195 24.5871C7.7296 24.5898 7.59722 24.5903 7.46483 24.5895C7.42991 24.5893 7.4149 24.5981 7.40807 24.6361C7.3544 24.9346 7.29778 25.2326 7.24204 25.5307C7.23916 25.546 7.2363 25.5613 7.23254 25.5764C7.20426 25.6899 7.10438 25.7593 6.99903 25.7387C6.88591 25.7167 6.81553 25.6125 6.83614 25.4943C6.85455 25.389 6.87549 25.2841 6.89514 25.179C6.93109 24.9864 6.96689 24.7937 7.00369 24.5961C6.97053 24.5943 6.94184 24.5939 6.91335 24.591C6.79568 24.5791 6.71743 24.4935 6.72129 24.382C6.72508 24.2721 6.81126 24.1892 6.92847 24.188C7.2049 24.1852 7.48146 24.18 7.75781 24.1843C7.94779 24.1873 8.06113 24.1174 8.12975 23.928C8.17813 23.7945 8.20102 23.6501 8.22158 23.5086C8.27194 23.1622 8.31384 22.8146 8.36038 22.4676C8.37469 22.3606 8.44159 22.2901 8.53587 22.2761C8.62878 22.2623 8.70799 22.3116 8.75565 22.4124C8.75795 22.4172 8.76281 22.4208 8.76645 22.4249L8.76705 22.5301Z" fill="#F5F5F5"/>
<path d="M5.58706 25.34L5.57663 23.5156L5.50481 23.516C5.17775 23.5179 4.85063 23.5201 4.52352 23.5215C4.40749 23.522 4.32793 23.4708 4.29974 23.3798C4.26191 23.2577 4.34086 23.1349 4.46871 23.1175C4.486 23.1151 4.5037 23.1153 4.5212 23.1152C5.36036 23.1103 6.19951 23.1054 7.03872 23.1008C7.16635 23.1001 7.24984 23.163 7.26759 23.2715C7.28481 23.3772 7.2188 23.4767 7.11416 23.499C7.08404 23.5054 7.05244 23.5068 7.02145 23.507C6.70019 23.5094 6.37894 23.511 6.05768 23.5129L5.98658 23.5133L5.99701 25.3377C6.05402 25.3374 6.10958 25.3365 6.16515 25.3369C6.29115 25.3376 6.37843 25.4169 6.38178 25.533C6.38506 25.6487 6.30229 25.7382 6.1767 25.7408C5.92168 25.7458 5.66657 25.7473 5.41154 25.7451C5.28653 25.744 5.2024 25.6542 5.20485 25.5388C5.20731 25.4231 5.29396 25.3432 5.42009 25.3411C5.47426 25.3402 5.52838 25.3404 5.58706 25.34Z" fill="#F5F5F5"/>
<path d="M4.57073 24.6066C4.63054 24.909 4.68811 25.2007 4.74603 25.4924C4.77155 25.6207 4.70958 25.7253 4.59169 25.7516C4.48268 25.7759 4.37603 25.7019 4.35081 25.5782C4.29028 25.281 4.2312 24.9835 4.17502 24.6855C4.16427 24.6285 4.14719 24.604 4.08333 24.6078C3.96297 24.6148 3.84198 24.6125 3.72129 24.6108C3.68124 24.6103 3.66484 24.6203 3.65717 24.6633C3.60365 24.9638 3.54619 25.2636 3.49077 25.5637C3.46484 25.7043 3.36299 25.7855 3.24387 25.7584C3.12954 25.7324 3.06592 25.6314 3.08829 25.5104C3.15203 25.1664 3.21635 24.8223 3.2788 24.478C3.28236 24.4585 3.27833 24.4291 3.26569 24.4163C3.07373 24.2209 2.99194 23.9783 2.95502 23.7143C2.90142 23.331 2.84587 22.9479 2.78966 22.5649C2.77035 22.4333 2.83797 22.3269 2.95763 22.3081C3.07247 22.2899 3.1723 22.3708 3.19107 22.5001C3.24931 22.9025 3.30634 23.3049 3.3644 23.7073C3.38179 23.8278 3.41643 23.9424 3.48286 24.046C3.54982 24.1505 3.64216 24.2071 3.76903 24.2059C4.05912 24.2032 4.34921 24.2011 4.63929 24.2011C4.80004 24.2011 4.89895 24.3533 4.83066 24.4917C4.79207 24.5698 4.72492 24.6022 4.64118 24.6061C4.62026 24.607 4.59928 24.6064 4.57073 24.6066Z" fill="#F5F5F5"/>
</svg>
