<svg width="32" height="32" viewBox="0 0 32 32" fill="none" xmlns="http://www.w3.org/2000/svg">
<path d="M16 5C13.8244 5 11.6977 5.64514 9.88873 6.85383C8.07979 8.06253 6.66989 9.7805 5.83733 11.7905C5.00477 13.8005 4.78693 16.0122 5.21137 18.146C5.6358 20.2798 6.68345 22.2398 8.22183 23.7782C9.76021 25.3166 11.7202 26.3642 13.854 26.7886C15.9878 27.2131 18.1995 26.9952 20.2095 26.1627C22.2195 25.3301 23.9375 23.9202 25.1462 22.1113C26.3549 20.3023 27 18.1756 27 16C27 13.0826 25.8411 10.2847 23.7782 8.22183C21.7153 6.15893 18.9174 5 16 5Z" stroke="#F72F2F" stroke-width="2" stroke-miterlimit="10"/>
<path d="M12.5 12.6431C12.5 12.6431 12.5525 11.5494 13.7231 10.6075C14.4175 10.0481 15.25 9.88624 16 9.87499C16.6831 9.86624 17.2931 9.97936 17.6581 10.1531C18.2831 10.4506 19.5 11.1769 19.5 12.7212C19.5 14.3462 18.4375 15.0844 17.2269 15.8962C16.0163 16.7081 15.6875 17.5894 15.6875 18.5" stroke="#F72F2F" stroke-width="2" stroke-miterlimit="10" stroke-linecap="round"/>
<path d="M15.625 23C16.3154 23 16.875 22.4404 16.875 21.75C16.875 21.0596 16.3154 20.5 15.625 20.5C14.9346 20.5 14.375 21.0596 14.375 21.75C14.375 22.4404 14.9346 23 15.625 23Z" fill="#F72F2F"/>
</svg>
