<svg width="24" height="24" viewBox="0 0 24 24" fill="none" xmlns="http://www.w3.org/2000/svg">
<path d="M16.3609 6.76844L16.3609 6.76851C16.1639 9.43814 14.1483 11.5 12 11.5C9.85139 11.5 7.83269 9.43736 7.63872 6.76832C7.54283 5.44208 7.95113 4.23704 8.76661 3.35783C9.57391 2.48762 10.7162 2 12 2C13.2742 2 14.4129 2.48941 15.2257 3.36694C16.0485 4.25529 16.4578 5.45814 16.3609 6.76844ZM20.2564 22H20.25H3.75002V22L3.74352 22C3.60186 22.0019 3.46158 21.9721 3.33287 21.9129L3.12394 22.3672L3.33286 21.9129C3.20416 21.8537 3.09026 21.7666 2.99947 21.6578L2.99915 21.6575C2.79749 21.4164 2.70429 21.0723 2.77111 20.7027L2.77116 20.7025C3.14145 18.6483 4.29396 16.92 6.1273 15.6973C7.76242 14.6077 9.84814 14 12 14C14.1518 14 16.2375 14.6081 17.8727 15.6973C19.706 16.9195 20.8586 18.6478 21.2289 20.702L21.2289 20.7022C21.2958 21.0718 21.2026 21.4159 21.0009 21.657L21.0004 21.6575C20.9097 21.7663 20.7958 21.8535 20.6671 21.9128C20.5384 21.972 20.3981 22.0018 20.2564 22V22Z" fill="#7E7E7E" stroke="#F72F2F"/>
</svg>
